<svg xmlns="http://www.w3.org/2000/svg" xmlns:xlink="http://www.w3.org/1999/xlink" xmlns:lucid="lucid" width="1497.5" height="974.16"><g transform="translate(-42.5 400)" lucid:page-tab-id="0_0"><path d="M0-1259.2h1870.4v2582.4H0z" fill="#fff"/><path d="M62.5-374c0-3.3 2.7-6 6-6h691.35c3.3 0 6 2.7 6 6v922.16c0 3.3-2.7 6-6 6H68.5c-3.3 0-6-2.7-6-6z" fill-opacity="0"/><path d="M126.1-380h57.62m28.8 0h57.62m28.8 0h57.62m28.8 0H443m28.8 0h57.62m28.8 0h57.62m28.8 0h57.62m28.8 0h28.8l3.04.82 2.15 2.15.82 3.03v30.74m0 30.74v61.47m0 30.74v61.47m0 30.74v61.5m0 30.73V25.6m0 30.74v61.48m0 30.74v61.48m0 30.73v61.48m0 30.74v61.47m0 30.74v61.48m0 30.74v30.74l-.82 3.03-2.15 2.14-3.03.82h-28.8m-28.8 0h-57.62m-28.8 0H558.2m-28.8 0h-57.6m-28.82 0h-57.6m-28.82 0h-57.6m-28.82 0h-57.6m-28.8 0H126.1m-28.8 0H68.5l-3.03-.82-2.15-2.15-.82-3.04v-30.74m0-30.74V425.2m0-30.73V333m0-30.75v-61.48m0-30.73v-61.48m0-30.74V56.34m0-30.74v-61.47m0-30.74v-61.5m0-30.73v-61.48m0-30.75v-61.47m0-30.74V-374l.82-3.03 2.15-2.15 3.03-.82h28.8" stroke="#5e5e5e" stroke-width="3" fill="none"/><path d="M800-374c0-3.3 2.7-6 6-6h708c3.3 0 6 2.7 6 6v922.16c0 3.3-2.7 6-6 6H806c-3.3 0-6-2.7-6-6z" fill-opacity="0"/><path d="M865-380h59m29.5 0h59m29.5 0h59m29.5 0h59m29.5 0h59m29.5 0h59m29.5 0h59m29.5 0h29.5l3.03.82 2.15 2.15.82 3.03v30.74m0 30.74v61.47m0 30.74v61.47m0 30.74v61.5m0 30.73V25.6m0 30.74v61.48m0 30.74v61.48m0 30.73v61.48m0 30.74v61.47m0 30.74v61.48m0 30.74v30.74l-.82 3.03-2.15 2.14-3.03.82h-29.5m-29.5 0h-59m-29.5 0h-59m-29.5 0h-59m-29.5 0h-59m-29.5 0h-59m-29.5 0h-59m-29.5 0h-59m-29.5 0H806l-3.03-.82-2.15-2.15-.82-3.04v-30.74m0-30.74V425.2m0-30.73V333m0-30.75v-61.48m0-30.73v-61.48m0-30.74V56.34m0-30.74v-61.47m0-30.74v-61.5m0-30.73v-61.48m0-30.75v-61.47m0-30.74V-374l.82-3.03 2.15-2.15L806-380h29.5" stroke="#5e5e5e" stroke-width="3" fill="none"/><path d="M120-100h400V60H120z" fill="#fff"/><path d="M140.5-100h20.53m10.25 0h20.5m10.27 0h20.5m10.27 0h20.5m10.27 0h20.5m10.26 0h20.5m10.27 0h20.5m10.27 0h20.5m10.27 0h20.5m10.27 0h20.5m10.27 0h20.52m10.25 0h20.52m10.24 0H520v10.67m0 10.66v21.34m0 10.66v21.34m0 10.66V6.67m0 10.66v21.34m0 10.66V60h-10.26m-10.25 0h-20.53m-10.25 0h-20.5m-10.27 0h-20.5m-10.27 0h-20.5m-10.27 0h-20.5m-10.26 0h-20.5m-10.27 0h-20.5m-10.27 0h-20.5m-10.27 0h-20.5m-10.27 0h-20.5m-10.27 0h-20.52m-10.25 0H140.5m-10.24 0H120V49.33m0-10.66V17.33m0-10.66v-21.34m0-10.66v-21.34m0-10.66v-21.34m0-10.66V-100h10.26" stroke="#000" stroke-width="2" fill="none"/><path d="M612.5-57.08h80v80h-80v-80z" stroke="#fff" stroke-opacity="0" stroke-width="2" fill="#3f8624"/><path d="M678.03-14.37c-.3-1.66-2.2-2.84-3.53-3.7-.4-.26-1.53-.68-1.64-1.06 0-.26 0-.53.1-.8l1.08-7.64.92-6.78c.25-2.03-.72-3.42-2.4-4.6-3.43-2.4-7.93-3.36-11.96-4-5.32-.85-9.97-1-15.34-.48-4.85.32-8.9 1.28-13.4 3.2-2.24 1.07-5.25 2.73-4.84 5.6 1.02 8.67 2.3 17.32 3.47 25.97.5 3.95 1.06 7.9 1.58 11.86.2 1.65 1.12 2.93 2.65 3.58 3.27 1.76 7.36 2.3 11.1 2.6 5.16.5 9.55.33 14.66-.63 3.06-.53 8.8-1.5 9.3-5.34.6-4.74 1.27-9.5 1.9-14.25l.24-1.44c1.74.44 6.7 1.34 6.1-2.07zm-27.1-27.24c6.45 0 13.76.74 19.48 3.9.93.47 2.97 1.53 2.36 2.87-.6 1.28-2.55 1.92-3.73 2.4-1.74.64-3.32 1.07-5.16 1.45-7.98 1.6-15.03 1.76-23.1.48-3.63-.38-6.65-1.3-9.92-2.9-.77-.47-2.05-1.22-1.7-2.28.27-.6.68-1.02 1.24-1.34 2.5-1.6 4.8-2.56 7.7-3.1 4.4-1.07 8.3-1.55 12.84-1.5zM667.7 3.35c-.2 1.23-2.25 1.87-3.22 2.2-2.15.73-4.04 1.16-6.3 1.43-4.94.63-9.24.63-14.25 0-3.1-.28-5.72-.97-8.53-2.36-.77-.32-1.23-1.02-1.28-1.82-1.07-8.5-2.25-16.93-3.42-25.37l-1.23-9.18c2.55 1.4 4.9 2.24 7.77 2.72 3.12.63 5.72.95 8.9 1.17 6.12.42 11.4.16 17.47-.96 3.23-.48 5.9-1.38 8.75-2.93l-2.25 16.7c-5.72-1.85-10.42-3.72-15.8-6.34-.25-.1-.45-.2-.66-.32-.3-.2-.2-.1-.35-.42-.27-.64-.32-1.07-.88-1.6-.5-.37-1.08-.53-1.7-.48-1.32.05-2.34 1.23-2.24 2.56.1 1.28 1.28 2.3 2.6 2.2.37-.06.67-.17 1.08-.33.4-.1.4-.1.82.1 5.47 2.68 10.22 4.65 16 6.58.82.27.82 0 .82.7-.05.54-.1 1.02-.2 1.55l-.67 5.07zM651.24-21.9c0 .32-.4.26-.5.1-.16-.2.5-.48.5-.1zm21 7.47l.32-2.35c1.07.64 2.86 1.55 3.37 2.73-1.07.42-2.7-.1-3.68-.38z" stroke="#fff" stroke-opacity="0" stroke-width="2" fill="#fff"/><use xlink:href="#a" transform="matrix(1,0,0,1,582.5000000000002,31.919448476052196) translate(1.638580246913591 13.211111111111112)"/><use xlink:href="#b" transform="matrix(1,0,0,1,582.5000000000002,31.919448476052196) translate(51.19166666666666 13.211111111111112)"/><use xlink:href="#c" transform="matrix(1,0,0,1,582.5000000000002,31.919448476052196) translate(58.72253086419752 13.211111111111112)"/><use xlink:href="#d" transform="matrix(1,0,0,1,582.5000000000002,31.919448476052196) translate(93.28919753086419 13.211111111111112)"/><path d="M622.5 107.08h60v60h-60v-60z" stroke="#fff" stroke-opacity="0" stroke-width="2" fill="#cc2264"/><path d="M666.16 147.82V147.82zM655.66 131.88l-.08.15c.03-.05.06-.1.07-.16z" stroke="#fff" stroke-opacity="0" stroke-width="2" fill="#fff"/><path d="M648.73 129.1c-.72 0-7-.05-7 2.33 0 .14.02.3.08.44l.08.16 4.35 9.6v4.97c0 .5.2.8.65.8h.2c1.07-.27 1.9-.7 2.75-1.4l.54-.4c.24-.14.36-.38.38-.67v-3.27l4.83-9.6c.04-.05.05-.1.07-.16.05-.14.08-.3.08-.44 0-2.4-6.3-2.36-7-2.36zm0 1.47c2.8 0 4.63.5 5.24.86-.6.35-2.4.84-5.24.84-2.86 0-4.64-.5-5.24-.84.6-.35 2.4-.86 5.23-.86zm.57 10.4v3.64l-.3.2c-.45.26-.86.44-1.32.68v-4.03c0-.1-.02-.2-.06-.3l-3.4-7.8c1.55.35 2.9.5 4.5.5 1.56 0 2.87-.14 4.4-.47z" stroke="#fff" stroke-opacity="0" stroke-width="2" fill="#fff"/><path d="M663.3 151.22c-3.27 2.38-6.73 3.5-10.76 3.45-8.7 0-16.12-5.64-17.9-14 1.68-.07 3-1.2 3.37-2.8h4.08v-1.5H638c-.32-1.64-1.65-2.8-3.32-2.9 2.43-9.86 12.4-15.88 22.25-13.47 2.3.58 4.13 1.42 6.07 2.76l.9-1.26c-2.3-1.6-4.53-2.57-7.27-3.15-10.8-2.26-21.4 4.68-23.68 15.5-.8.34-1.36.92-1.73 1.72-.83 1.8-.07 3.95 1.73 4.76 1.97 9.4 10 15.95 19.6 15.95 4.35 0 8.08-1.2 11.65-3.76zm-30.82-14.15c0-1 .77-1.88 1.77-2h.27c1.1 0 2 .9 2 2s-.9 2-2 2c-1.1.03-2-.9-2-1.96v-.03z" stroke="#fff" stroke-opacity="0" stroke-width="2" fill="#fff"/><path d="M670.5 140.68c1.73 0 3.17-1.15 3.53-2.87.4-1.9-.84-3.83-2.8-4.25-1.92-.4-3.84.83-4.25 2.78h-4.16v-9.88H665c.18 1.5 1.24 2.67 2.73 3.02 1.94.47 3.87-.74 4.33-2.7.45-1.9-.76-3.84-2.7-4.3-1.93-.45-3.86.76-4.32 2.68l-2.94-.03c-.07-.03-.13-.03-.2-.03-.36.02-.63.35-.6.7v10.5h-6.15v1.48h6.16v10.47c0 .45.35.8.8.8h2.5c.3 1.45 1.37 2.54 2.83 2.84 1.95.37 3.85-.9 4.25-2.85.38-1.95-.88-3.84-2.83-4.23-1.95-.38-3.85.86-4.24 2.8h-1.74l-.04-9.84h4.16c.34 1.72 1.78 2.9 3.52 2.9zm0-5.6c1.1 0 2 .9 2 2 0 1.12-.9 2-2 2s-2-.88-2-2c0-1.1.9-2 2-2zm-2-11.14c1.1.03 1.98.92 1.98 2 0 1.1-.9 2-2 2s-1.98-.9-1.98-2v-.02c0-1.1.9-1.98 2-1.98zm-.4 22.33c1.1 0 2 .9 2 2 .02 1.1-.9 2-2 2.02-1 0-1.84-.75-1.98-1.78v-.24c0-.15.02-.26.06-.4.2-.93.97-1.58 1.9-1.6z" stroke="#fff" stroke-opacity="0" stroke-width="2" fill="#fff"/><use xlink:href="#e" transform="matrix(1,0,0,1,592.5000000000002,176.08055152394775) translate(46.086728395061726 13.211111111111112)"/><path d="M256-15h123.6" stroke="#000" stroke-width="2" fill="none"/><path d="M240.74-15L255-19.64v9.28z" stroke="#000" stroke-width="2"/><path d="M380.6-14h-1.03v-2h1.02zM517.06-14.64l-41.2.62-.02-2 41.22-.62zm76.96-1.16l-6.32.1v-2l6.3-.1z"/><path d="M475.9-14.02l-1.05.02v-2l1-.02zM609.26-17.03l-14.2 4.85-.13-9.27z"/><path d="M612.5-17.08l-18.4 6.3-.2-12.03zm-16.45 3.5l9.98-3.4-10.08-3.1z"/><use xlink:href="#f" transform="matrix(1,0,0,1,517.0610940419498,-24.305166389568196) translate(0 10.844444444444445)"/><use xlink:href="#g" transform="matrix(1,0,0,1,517.0610940419498,-24.305166389568196) translate(46.61604938271604 10.844444444444445)"/><path d="M200 23.5v285.08" stroke="#000" stroke-width="2" fill="none"/><path d="M201 23.53h-2V22.5h2z"/><path d="M200 323.84l-4.64-14.26h9.28z" stroke="#000" stroke-width="2"/><path d="M162.5-52.5h75v75h-75v-75z" stroke="#fff" stroke-opacity="0" stroke-width="2" fill="#d86613"/><path d="M199.78 11.94c-.18 0-.37-.05-.5-.16l-22.76-13.1c-.37-.22-.55-.54-.55-.92v-26.58c0-.38.18-.7.55-.92l20.93-12.08c.4-.32 1.05-.16 1.37.27.14.22.18.43.18.65v11.54c0 .32-.18.64-.5.86L188-22.52v13.97l11.82 6.8 10.3-6c.33-.2.7-.2 1.02 0l9.9 5.72c.36.17.54.5.54.92 0 .37-.18.7-.55.85l-20.75 12.03c-.14.1-.32.16-.5.16zM178.02-2.94l22.3 12.9L219.5-1.17l-7.98-4.6L200.87.4c-.36.16-.73.16-1.1 0l-13.26-7.66c-.36-.2-.54-.53-.54-.9v-14.9c0-.37.18-.7.55-.9l10.45-6v-9.16l-18.97 11z" stroke="#fff" stroke-opacity="0" stroke-width="2" fill="#fff"/><path d="M222.95-3.5c-.2 0-.37-.04-.53-.15l-9.92-5.72c-.35-.2-.53-.5-.53-.92v-12.1l-10.47-6c-.35-.2-.53-.55-.53-.94v-11.5c0-.4.18-.74.53-.9.3-.2.67-.2 1 0l21 12.06c.35.2.53.54.53.92V-4.6c0 .4-.18.72-.53.9-.18.12-.35.2-.55.2zM214-10.95l8 4.6V-28.1l-19-11v9.1l10.5 6.12c.34.2.54.5.52.92z" stroke="#fff" stroke-opacity="0" stroke-width="2" fill="#fff"/><use xlink:href="#h" transform="matrix(1,0,0,1,132.5000000000001,31.5) translate(36.66111111111111 13.211111111111112)"/><use xlink:href="#i" transform="matrix(1,0,0,1,132.5000000000001,31.5) translate(68.29074074074074 13.211111111111112)"/><path d="M381 467.08h60.5" stroke="#000" stroke-width="2" fill="none"/><path d="M365.74 467.08l14.26-4.63v9.27z" stroke="#000" stroke-width="2"/><path d="M442.5 468.08h-1.03v-2h1.03z"/><path d="M541 467.08h131.5v-29" stroke="#000" stroke-width="2" fill="none"/><path d="M525.74 467.08l14.26-4.63v9.27z" stroke="#000" stroke-width="2"/><path d="M673.5 438.1h-2v-1.02h2z"/><path d="M160 327.08h80v80h-80v-80z" stroke="#fff" stroke-opacity="0" stroke-width="2" fill="#d86613"/><path d="M199.76 395.82c-.2 0-.4-.06-.53-.18l-24.28-13.97c-.4-.23-.58-.58-.58-.98v-28.37c0-.4.2-.74.58-.97l22.33-12.9c.44-.33 1.12-.16 1.46.3.15.23.2.46.2.7v12.3c0 .34-.2.7-.54.92l-11.2 6.38v14.9l12.6 7.25 11-6.38c.35-.23.74-.23 1.08 0l10.56 6.1c.38.17.58.52.58.98 0 .4-.2.75-.58.92l-22.14 12.82c-.15.12-.34.18-.54.18zm-23.2-15.88l23.8 13.75 20.42-11.86-8.5-4.9-11.35 6.57c-.4.18-.78.18-1.17 0l-14.15-8.16c-.38-.23-.58-.57-.58-.98V358.5c0-.4.2-.76.6-1l11.13-6.37v-9.78l-20.24 11.73z" stroke="#fff" stroke-opacity="0" stroke-width="2" fill="#fff"/><path d="M224.48 379.35c-.23 0-.4-.04-.57-.17l-10.57-6.1c-.37-.2-.56-.53-.56-.98v-12.9l-11.17-6.43c-.37-.2-.57-.57-.57-.98v-12.3c0-.4.2-.77.57-.94.32-.2.7-.2 1.06 0l22.4 12.86c.38.2.57.57.57.98v25.76c0 .45-.2.78-.56.98-.2.13-.37.2-.6.2zm-9.55-7.95l8.54 4.92V353.1l-20.27-11.7v9.7l11.2 6.5c.36.2.58.54.56 1z" stroke="#fff" stroke-opacity="0" stroke-width="2" fill="#fff"/><use xlink:href="#j" transform="matrix(1,0,0,1,130.0000000000001,416.0805515239478) translate(13.669135802469157 13.211111111111112)"/><use xlink:href="#k" transform="matrix(1,0,0,1,130.0000000000001,416.0805515239478) translate(103.77592592592592 13.211111111111112)"/><path d="M332.5 436.08v-69h-74" stroke="#000" stroke-width="2" fill="none"/><path d="M333.5 437.08h-2v-1.03h2z"/><path d="M243.24 367.08l14.26-4.63v9.27z" stroke="#000" stroke-width="2"/><use xlink:href="#l" transform="matrix(1,0,0,1,340.5000000000001,370.8000000000001) translate(0 14.222222222222223)"/><use xlink:href="#m" transform="matrix(1,0,0,1,340.5000000000001,370.8000000000001) translate(78.8641975308642 14.222222222222223)"/><use xlink:href="#n" transform="matrix(1,0,0,1,340.5000000000001,370.8000000000001) translate(0 35.55555555555556)"/><path d="M120-100h170v40H120z" stroke="#000" stroke-opacity="0" stroke-width="2" fill="#fff" fill-opacity="0"/><use xlink:href="#o" transform="matrix(1,0,0,1,125.00000000000011,-95) translate(42.458641975308645 18.344444444444445)"/><path d="M423.66 4.86h8.92v6.9h-8.92v-6.9zM380.6-57.08h94.25V4.86H380.6v-61.94z" fill="#29aae1"/><path d="M384.85-53.3h86.04V2.1h-86.05V-53.3z" fill="#fff" fill-opacity=".98"/><path d="M384.26 12.18h85.94L465.94 27H380l4.26-14.82z" fill="#29aae1"/><path d="M383.76 11.68h87.93L479 27h-87.9l-7.34-15.32z" fill="#29aae1"/><path d="M413.57 23.04h31.28v3.1h-31.28v-3.1zM396.34 14.12h2.27v1.94h-2.26v-1.94zM400.4 14.2h2.37v1.94h-2.37V14.2zM405.64 17.74h2.38v1.93h-2.38v-1.93zM404.85 13.95h2.28v2.02h-2.28v-2.02zM408.8 14.12h2.4v1.94h-2.4v-1.94zM412.67 13.95h2.38v2.02h-2.38v-2.02zM436.93 14.3h2.38v2h-2.37v-2zM440.5 14.3h2.37v2h-2.37v-2zM443.86 14.3h2.38v2h-2.38v-2zM447.92 14.3h2.28v2h-2.28v-2zM451.6 14.3h2.26v2h-2.27v-2zM447.23 17.57h2.28v1.94h-2.27v-1.93zM455.74 14.3h2.38v2h-2.38v-2zM410.1 17.65h2.28v1.94h-2.28v-1.95zM414.56 17.65h2.27v1.94h-2.27v-1.95zM443.57 17.5h1.98v1.92h-1.98V17.5zM439.5 17.5h2.38v1.92h-2.37V17.5zM417.03 14.04h2.38v2.02h-2.37v-2.02zM421.5 14.12h2.26v2.02h-2.27v-2.02zM425.55 14.04h2.27v2.02h-2.27v-2.02zM430 14.04h2.28v2.02H430v-2.02zM433.67 14.12h2.27v2.02h-2.27v-2.02zM418.52 17.57h2.37v1.94h-2.38v-1.93zM422.97 17.57h2.28v1.94h-2.28v-1.93zM427.03 17.65h2.38v1.94h-2.37v-1.95zM431.1 17.65h2.27v1.94h-2.28v-1.95zM435.25 17.5h2.28v1.92h-2.28V17.5z" fill="#fff"/><path d="M380.1 27l98.9-.34L472 11.68l-87.62.17L380.1 27z" fill="none"/><path d="M423.17 4.86h9.7v.93h-9.7v-.94zM423.57 10.58h9.2v1.1h-9.2v-1.1z" fill="#fff"/><use xlink:href="#p" transform="matrix(1,0,0,1,350.0000000000001,27.08055152394781) translate(52.92654320987655 17.711111111111112)"/><path d="M652.5 23.92v64.66" stroke="#000" stroke-width="2" fill="none"/><path d="M653.5 23.95h-2v-1.03h2z"/><path d="M652.5 103.84l-4.64-14.26h9.28z" stroke="#000" stroke-width="2"/><path d="M602.5 337.08h60v60h-60v-60z" stroke="#fff" stroke-opacity="0" stroke-width="2" fill="#d86613"/><path d="M650.9 387.08h-9.86c-.32 0-.57-.16-.7-.44l-13.96-29.16h-5.9c-.44 0-.8-.36-.8-.8v-8.8c0-.44.36-.8.8-.8h12.34c.32 0 .57.16.7.44l13.9 29.16h3.48c.45 0 .8.36.8.8v8.8c0 .44-.35.8-.8.8zm-9.35-1.6h8.55v-7.2h-3.2c-.32 0-.58-.16-.7-.44l-13.9-29.16h-11v7.2h5.6c.3 0 .57.16.73.44z" stroke="#fff" stroke-opacity="0" stroke-width="2" fill="#fff"/><path d="M624.48 387.08h-10.4c-.28 0-.52-.15-.68-.36-.16-.27-.16-.57-.04-.8l10.9-22.74c.1-.3.4-.46.7-.46.3 0 .58.17.72.44l5.2 10.72c.13.22.13.46 0 .7l-5.68 12c-.1.3-.4.5-.72.5zm-9.12-1.6h8.62l5.3-11.2-4.3-8.93z" stroke="#fff" stroke-opacity="0" stroke-width="2" fill="#fff"/><path d="M622.5 357.08h60v60h-60v-60z" stroke="#fff" stroke-opacity="0" stroke-width="2" fill="#d86613"/><path d="M670.9 407.08h-9.86c-.32 0-.57-.16-.7-.44l-13.96-29.16h-5.9c-.44 0-.8-.36-.8-.8v-8.8c0-.44.36-.8.8-.8h12.34c.32 0 .57.16.7.44l13.9 29.16h3.48c.45 0 .8.36.8.8v8.8c0 .44-.35.8-.8.8zm-9.35-1.6h8.55v-7.2h-3.2c-.32 0-.58-.16-.7-.44l-13.9-29.16h-11v7.2h5.6c.3 0 .57.16.73.44z" stroke="#fff" stroke-opacity="0" stroke-width="2" fill="#fff"/><path d="M644.48 407.08h-10.4c-.28 0-.52-.15-.68-.36-.16-.27-.16-.57-.04-.8l10.9-22.74c.1-.3.4-.46.7-.46.3 0 .58.17.72.44l5.2 10.72c.13.22.13.46 0 .7l-5.68 12c-.1.3-.4.5-.72.5zm-9.12-1.6h8.62l5.3-11.2-4.3-8.93z" stroke="#fff" stroke-opacity="0" stroke-width="2" fill="#fff"/><path d="M642.5 377.08h60v60h-60v-60z" stroke="#fff" stroke-opacity="0" stroke-width="2" fill="#d86613"/><path d="M690.9 427.08h-9.86c-.32 0-.57-.16-.7-.44l-13.96-29.16h-5.9c-.44 0-.8-.36-.8-.8v-8.8c0-.44.36-.8.8-.8h12.34c.32 0 .57.16.7.44l13.9 29.16h3.48c.45 0 .8.36.8.8v8.8c0 .44-.35.8-.8.8zm-9.35-1.6h8.55v-7.2h-3.2c-.32 0-.58-.16-.7-.44l-13.9-29.16h-11v7.2h5.6c.3 0 .57.16.73.44z" stroke="#fff" stroke-opacity="0" stroke-width="2" fill="#fff"/><path d="M664.48 427.08h-10.4c-.28 0-.52-.15-.68-.36-.16-.27-.16-.57-.04-.8l10.9-22.74c.1-.3.4-.46.7-.46.3 0 .58.17.72.44l5.2 10.72c.13.22.13.46 0 .7l-5.68 12c-.1.3-.4.5-.72.5zm-9.12-1.6h8.62l5.3-11.2-4.3-8.93z" stroke="#fff" stroke-opacity="0" stroke-width="2" fill="#fff"/><use xlink:href="#q" transform="matrix(1,0,0,1,612.5000000000002,446.08055152394786) translate(14.061728395061735 10.844444444444445)"/><use xlink:href="#r" transform="matrix(1,0,0,1,612.5000000000002,446.08055152394786) translate(70.5432098765432 10.844444444444445)"/><use xlink:href="#s" transform="matrix(1,0,0,1,612.5000000000002,446.08055152394786) translate(34.43271604938272 27.11111111111111)"/><path d="M592.5 207.08h60v40h-60v-40z" fill="#876929"/><path d="M592.5 207.08h60v37.27h-60z" fill="#d9a741"/><path d="M609.15 212.1h6.4v28.1h-6.4v-28.1zM619.3 212.1h6.4v28.1h-6.4v-28.1zM629.45 212.1h6.4v28.1h-6.4v-28.1zM599.9 220.05v12.2l5.48-6.1-5.48-6.1zM639.6 220.05v12.2l5.48-6.1-5.47-6.1z" fill="#fff"/><path d="M442.5 427.08h80v60h-80v-60z" fill="#876929"/><path d="M442.5 427.08h80v55.9h-80z" fill="#d9a741"/><path d="M464.7 434.6h8.52v42.16h-8.52V434.6zM478.24 434.6h8.52v42.16h-8.52V434.6zM491.76 434.6h8.52v42.16h-8.52V434.6zM452.37 446.54v18.3l7.3-9.16-7.3-9.14zM505.3 446.54v18.3l7.3-9.16-7.3-9.14z" fill="#fff"/><use xlink:href="#t" transform="matrix(1,0,0,1,442.5000000000002,487.08055152394786) translate(6.487654320987659 10.844444444444445)"/><use xlink:href="#u" transform="matrix(1,0,0,1,442.5000000000002,487.08055152394786) translate(32.092592592592595 10.844444444444445)"/><use xlink:href="#v" transform="matrix(1,0,0,1,442.5000000000002,487.08055152394786) translate(21.172839506172842 27.11111111111111)"/><path d="M612.5 227.08h60v40h-60v-40z" fill="#876929"/><path d="M612.5 227.08h60v37.27h-60z" fill="#d9a741"/><path d="M629.15 232.1h6.4v28.1h-6.4v-28.1zM639.3 232.1h6.4v28.1h-6.4v-28.1zM649.45 232.1h6.4v28.1h-6.4v-28.1zM619.9 240.05v12.2l5.48-6.1-5.48-6.1zM659.6 240.05v12.2l5.48-6.1-5.47-6.1z" fill="#fff"/><path d="M632.5 247.08h60v40h-60v-40z" fill="#876929"/><path d="M632.5 247.08h60v37.27h-60z" fill="#d9a741"/><path d="M649.15 252.1h6.4v28.1h-6.4v-28.1zM659.3 252.1h6.4v28.1h-6.4v-28.1zM669.45 252.1h6.4v28.1h-6.4v-28.1zM639.9 260.05v12.2l5.48-6.1-5.48-6.1zM679.6 260.05v12.2l5.48-6.1-5.47-6.1z" fill="#fff"/><use xlink:href="#w" transform="matrix(1,0,0,1,632.5000000000002,287.0805515239478) translate(3.6419753086419817 10.844444444444445)"/><use xlink:href="#r" transform="matrix(1,0,0,1,632.5000000000002,287.0805515239478) translate(12.302469135802468 27.11111111111111)"/><use xlink:href="#x" transform="matrix(1,0,0,1,632.5000000000002,287.0805515239478) translate(7.783950617283953 43.37777777777778)"/><path d="M652.5 168.08v39.7" stroke="#000" stroke-width="2" fill="none"/><path d="M653.5 168.1h-2v-1.02h2z"/><path d="M652.5 223.04l-4.64-14.26h9.28z" stroke="#000" stroke-width="2"/><path d="M662.5 288.08v53.3" stroke="#000" stroke-width="2" fill="none"/><path d="M663.5 288.1h-2v-1.02h2z"/><path d="M662.5 356.64l-4.64-14.26h9.28z" stroke="#000" stroke-width="2"/><path d="M302.5 437.08h60v60h-60v-60z" stroke="#fff" stroke-opacity="0" stroke-width="2" fill="#d86613"/><path d="M350.9 487.08h-9.86c-.32 0-.57-.16-.7-.44l-13.96-29.16h-5.9c-.44 0-.8-.36-.8-.8v-8.8c0-.44.36-.8.8-.8h12.34c.32 0 .57.16.7.44l13.9 29.16h3.48c.45 0 .8.36.8.8v8.8c0 .44-.35.8-.8.8zm-9.35-1.6h8.55v-7.2h-3.2c-.32 0-.58-.16-.7-.44l-13.9-29.16h-11v7.2h5.6c.3 0 .57.16.73.44z" stroke="#fff" stroke-opacity="0" stroke-width="2" fill="#fff"/><path d="M324.48 487.08h-10.4c-.28 0-.52-.15-.68-.36-.16-.27-.16-.57-.04-.8l10.9-22.74c.1-.3.4-.46.7-.46.3 0 .58.17.72.44l5.2 10.72c.13.22.13.46 0 .7l-5.68 12c-.1.3-.4.5-.72.5zm-9.12-1.6h8.62l5.3-11.2-4.3-8.93z" stroke="#fff" stroke-opacity="0" stroke-width="2" fill="#fff"/><use xlink:href="#t" transform="matrix(1,0,0,1,272.5000000000001,506.08055152394786) translate(25.376851851851853 13.211111111111112)"/><use xlink:href="#y" transform="matrix(1,0,0,1,272.5000000000001,506.08055152394786) translate(50.98179012345679 13.211111111111112)"/><path d="M381.13-13.7l-134.4 324.07-1.85-.76 134.4-324.06z"/><path d="M381.52-14.62l-.4.95-1.84-.77.4-.94zM249.7 312.7l-9.75 11.4 1.2-14.96z"/><path d="M251.36 312.3l-12.65 14.78 1.55-19.4zm-10.17 8.8l6.85-8-6.02-2.5z"/><use xlink:href="#z" transform="matrix(1,0,0,1,287.68944620994785,200.86542332162617) translate(0 10.844444444444445)"/><path d="M860-100h400V60H860z" fill="#fff"/><path d="M880.5-100h20.53m10.25 0h20.5m10.27 0h20.5m10.27 0h20.5m10.27 0h20.5m10.26 0h20.5m10.27 0h20.5m10.27 0h20.5m10.27 0h20.5m10.27 0h20.5m10.27 0h20.52m10.25 0h20.52m10.24 0H1260v10.67m0 10.66v21.34m0 10.66v21.34m0 10.66V6.67m0 10.66v21.34m0 10.66V60h-10.26m-10.25 0h-20.53m-10.25 0h-20.5m-10.27 0h-20.5m-10.27 0h-20.5m-10.27 0h-20.5m-10.26 0h-20.5m-10.27 0h-20.5m-10.27 0h-20.5m-10.27 0h-20.5m-10.27 0h-20.5m-10.27 0h-20.52m-10.25 0H880.5m-10.24 0H860V49.33m0-10.66V17.33m0-10.66v-21.34m0-10.66v-21.34m0-10.66v-21.34m0-10.66V-100h10.26M1000.2-15h119.4" stroke="#000" stroke-width="2" fill="none"/><path d="M984.94-15l14.26-4.64v9.28z" stroke="#000" stroke-width="2"/><path d="M1120.6-14h-1.03v-2h1.02zM1260-14h-44.15v-2H1260zm79.2 0h-8.57v-2h8.57z"/><path d="M1215.88-14h-1.03v-2h1.03zM1354.47-15l-14.27 4.64v-9.28z"/><path d="M1357.7-15l-18.5 6v-12zm-16.5 3.26l10.03-3.26-10.03-3.26z"/><use xlink:href="#f" transform="matrix(1,0,0,1,1259.9921548360833,-23.133333333333336) translate(0 10.844444444444445)"/><use xlink:href="#g" transform="matrix(1,0,0,1,1259.9921548360833,-23.133333333333336) translate(46.61604938271604 10.844444444444445)"/><path d="M935.2 29.58V310" stroke="#000" stroke-width="2" fill="none"/><path d="M936.2 29.6h-2V28.6h2z"/><path d="M935.2 325.26L930.56 311h9.28z" stroke="#000" stroke-width="2"/><path d="M860-100h170v40H860z" stroke="#000" stroke-opacity="0" stroke-width="2" fill="#fff" fill-opacity="0"/><use xlink:href="#o" transform="matrix(1,0,0,1,865.0000000000001,-94.99999999999997) translate(42.458641975308645 18.344444444444445)"/><path d="M1163.66 4.86h8.92v6.9h-8.92v-6.9zM1120.6-57.08h94.25V4.86h-94.26v-61.94z" fill="#29aae1"/><path d="M1124.85-53.3h86.04V2.1h-86.05V-53.3z" fill="#fff" fill-opacity=".98"/><path d="M1124.26 12.18h85.94L1205.94 27H1120l4.26-14.82z" fill="#29aae1"/><path d="M1123.76 11.68h87.93L1219 27h-87.9l-7.34-15.32z" fill="#29aae1"/><path d="M1153.57 23.04h31.28v3.1h-31.28v-3.1zM1136.34 14.12h2.27v1.94h-2.26v-1.94zM1140.4 14.2h2.37v1.94h-2.37V14.2zM1145.64 17.74h2.38v1.93h-2.38v-1.93zM1144.85 13.95h2.28v2.02h-2.28v-2.02zM1148.8 14.12h2.4v1.94h-2.4v-1.94zM1152.67 13.95h2.38v2.02h-2.38v-2.02zM1176.93 14.3h2.38v2h-2.37v-2zM1180.5 14.3h2.37v2h-2.37v-2zM1183.86 14.3h2.38v2h-2.38v-2zM1187.92 14.3h2.28v2h-2.28v-2zM1191.6 14.3h2.26v2h-2.27v-2zM1187.23 17.57h2.28v1.94h-2.27v-1.93zM1195.74 14.3h2.38v2h-2.38v-2zM1150.1 17.65h2.28v1.94h-2.28v-1.95zM1154.56 17.65h2.27v1.94h-2.27v-1.95zM1183.57 17.5h1.98v1.92h-1.98V17.5zM1179.5 17.5h2.38v1.92h-2.37V17.5zM1157.03 14.04h2.38v2.02h-2.37v-2.02zM1161.5 14.12h2.26v2.02h-2.27v-2.02zM1165.55 14.04h2.27v2.02h-2.27v-2.02zM1170 14.04h2.28v2.02H1170v-2.02zM1173.67 14.12h2.27v2.02h-2.27v-2.02zM1158.52 17.57h2.37v1.94h-2.38v-1.93zM1162.97 17.57h2.28v1.94h-2.28v-1.93zM1167.03 17.65h2.38v1.94h-2.37v-1.95zM1171.1 17.65h2.27v1.94h-2.28v-1.95zM1175.25 17.5h2.28v1.92h-2.28V17.5z" fill="#fff"/><path d="M1120.1 27l98.9-.34-7.02-14.98-87.62.17L1120.1 27z" fill="none"/><path d="M1163.17 4.86h9.7v.93h-9.7v-.94zM1163.57 10.58h9.2v1.1h-9.2v-1.1z" fill="#fff"/><use xlink:href="#p" transform="matrix(1,0,0,1,1090,27.08055152394781) translate(52.92654320987655 17.711111111111112)"/><path d="M1392.5 25.76v91" stroke="#000" stroke-width="2" fill="none"/><path d="M1393.5 25.78h-2v-.92l2-.2z"/><path d="M1392.5 132.04l-4.64-14.27h9.28z" stroke="#000" stroke-width="2"/><path d="M1400 208.08v86.08" stroke="#000" stroke-width="2" fill="none"/><path d="M1401 208.1h-2v-1.02h2z"/><path d="M1400 309.43l-4.64-14.27h9.28z" stroke="#000" stroke-width="2"/><path d="M1121.14-13.7L986 312.77l-1.84-.76L1119.3-14.46z"/><path d="M1121.52-14.62l-.4.95-1.84-.76.4-.95zM988.98 315.08l-9.74 11.4 1.18-14.95z"/><path d="M990.64 314.68L978 329.48l1.53-19.4zm-10.16 8.82l6.85-8.03-6.02-2.5z"/><use xlink:href="#z" transform="matrix(1,0,0,1,1027.2256485542516,202.43377595548495) translate(0 10.844444444444445)"/><path d="M1390.2 25c-10.84 0-28.1-2.46-28.32-9.1l-7.73-57.2c-.14-.97.43-1.86 1.37-2.06.94-.14 1.88.47 2.1 1.43.8 3.28 13.65 7.86 32.64 7.86 19 0 31.86-4.58 32.65-7.86.23-.96 1.17-1.57 2.1-1.43.95.2 1.52 1.1 1.38 2.05l-7.87 57.2c0 2.26-2.1 4.18-6 5.75-1.8.68-3.38 1.16-5.26 1.57-5.92 1.3-10.98 1.78-17.05 1.78zm-31.93-61.66l6.93 52.3v.2c0 2.05 9.75 5.8 24.92 5.8 5.78.08 10.62-.47 16.25-1.63 1.73-.4 3.18-.88 4.84-1.56 3.12-1.23 3.84-2.33 3.84-2.67v-.2l7-52.23c-6.57 3.9-19.8 6-31.92 6-12.13 0-25.28-2.1-31.85-6z" stroke="#fff" stroke-opacity="0" fill="#3f8624"/><path d="M1390.2-30.68c-16.14 0-34.24-3.65-35.97-10.4V-42.02v-.23c0-7.52 19.03-12.77 36.12-12.77 17.1 0 35.98 5.25 35.98 12.77v.22l-.07.7v.2c-1.88 6.77-19.98 10.42-36.05 10.42zm-32.66-11.2c1.1 3.3 13.85 7.8 32.67 7.8s31.6-4.5 32.67-7.8v-.45c-.22-3.3-13.63-9.26-32.66-9.26-19.03 0-32.5 5.96-32.73 9.27zM1426.38-7.14c-8.07 0-25.83-8-36.92-13.46l1.5-3.06c15.3 7.53 33.35 14.5 36.45 13.18-.23-.48-1.4-2.02-6.82-4.97l-.24-.17 1.7-2.96.24.17c5.47 2.98 8.07 5.3 8.53 7.5.17.93-.07 1.83-.7 2.57-1.03.95-2.3 1.36-3.72 1.2z" stroke="#fff" stroke-opacity="0" fill="#3f8624"/><path d="M1390.2-18.4c-2.03 0-3.7-1.66-3.7-3.7s1.67-3.7 3.7-3.7c2.04 0 3.7 1.66 3.7 3.7s-1.66 3.7-3.7 3.7zm0-4c-.17 0-.3.14-.3.3 0 .33.6.33.6 0v-.04c0-.16-.13-.28-.3-.28z" stroke="#fff" stroke-opacity="0" fill="#3f8624"/><use xlink:href="#A" transform="matrix(1,0,0,1,1324.1500000000005,34) translate(16.00000000000002 10.666666666666664)"/><use xlink:href="#B" transform="matrix(1,0,0,1,1324.1500000000005,34) translate(58.14814814814815 10.666666666666664)"/><use xlink:href="#C" transform="matrix(1,0,0,1,1324.1500000000005,34) translate(78.14814814814815 10.666666666666664)"/><use xlink:href="#D" transform="matrix(1,0,0,1,1324.1500000000005,34) translate(40.40740740740742 26.66666666666666)"/><path d="M1427.38 162.27h-7.2v-2.25c0-2.2-1.76-3.92-3.92-3.92h-7.76c-2.16 0-3.92 1.73-3.92 3.87v2.35h-34.16c-2.8 0-5.12 2.3-5.12 5.1v1.37h-6.4c-.48 0-.96.2-1.28.55-.32.4-.4.87-.24 1.38l.96 4.43h-4.24c-.24 0-.4.06-.64.1-.8.4-1.2 1.33-.8 2.15l12.8 28.6c.16.62.72 1.03 1.44 1.08h64c.88 0 1.6-.7 1.6-1.58v-38.1c0-2.8-2.24-5.08-5.12-5.13zm-58.88 5.14c0-1.1.88-1.97 1.92-1.97h35.68c.88 0 1.6-.72 1.6-1.63v-3.88c0-.4.4-.7.8-.7h7.76c.4 0 .72.3.72.7v3.93c0 .86.72 1.58 1.6 1.58h8.8c1.04.05 1.92.9 1.92 1.98v23.88l-4.8-21.26c-.16-.77-.8-1.28-1.6-1.23h-54.4zm-7.6 4.55h60.8l4.08 17.95-6.16-13.82c-.24-.56-.8-.92-1.44-.92h-56.56zm7.04 31.92l-11.36-25.54h60.48l11.36 25.54zM1360.5 151.23v3.2h3.2v-3.2h1.6v3.2h3.2v-3.2h1.6v3.2h3.2v-3.2c.88 0 1.6-.72 1.6-1.6h3.2v-3.18h-3.2v-1.6h3.2v-3.2h-3.2v-1.6h3.2v-3.2h-3.2c0-.86-.72-1.57-1.6-1.57v-3.2h-3.2v3.2h-1.6v-3.2h-3.2v3.2h-1.6v-3.2h-3.2v3.2c-.88 0-1.6.7-1.6 1.58h-3.2v3.2h3.2v1.6h-3.2v3.18h3.2v1.6h-3.2v3.2h3.2c0 .87.72 1.6 1.6 1.6zm1.6-12.76h9.6v9.56h-9.6zM1387.7 151.23v3.2h3.2v-3.2h1.6v3.2h3.2v-3.2h1.6v3.2h3.2v-3.2c.88 0 1.6-.72 1.6-1.6h3.2v-3.18h-3.2v-1.6h3.2v-3.2h-3.2v-1.6h3.2v-3.2h-3.2c0-.86-.72-1.57-1.6-1.57v-3.2h-3.2v3.2h-1.6v-3.2h-3.2v3.2h-1.6v-3.2h-3.2v3.2c-.88 0-1.6.7-1.6 1.58h-3.2v3.2h3.2v1.6h-3.2v3.18h3.2v1.6h-3.2v3.2h3.2c0 .87.72 1.6 1.6 1.6zm1.6-12.76h9.6v9.56h-9.6zM1432.5 140.06v-3.2h-3.2c0-.87-.72-1.58-1.6-1.58v-3.2h-3.2v3.2h-1.6v-3.2h-3.2v3.2h-1.6v-3.2h-3.2v3.2c-.88 0-1.6.7-1.6 1.58h-3.2v3.2h3.2v1.6h-3.2v3.18h3.2v1.6h-3.2v3.2h3.2c0 .87.72 1.6 1.6 1.6v3.18h3.2v-3.2h1.6v3.2h3.2v-3.2h1.6v3.2h3.2v-3.2c.88 0 1.6-.7 1.6-1.58h3.2v-3.2h-3.2v-1.6h3.2v-3.18h-3.2v-1.6zm-6.4 7.97h-9.6v-9.56h9.6z" stroke="#fff" stroke-opacity="0" stroke-width="3" fill="#3f8624"/><use xlink:href="#E" transform="matrix(1,0,0,1,1322.5000000000005,216.08055152394786) translate(16.370370370370395 13.166666666666666)"/><use xlink:href="#F" transform="matrix(1,0,0,1,1322.5000000000005,216.08055152394786) translate(54.814814814814824 13.166666666666666)"/><use xlink:href="#G" transform="matrix(1,0,0,1,1322.5000000000005,216.08055152394786) translate(77.74074074074073 13.166666666666666)"/><path d="M1320 320.16c0-3.3 2.7-6 6-6h148c3.3 0 6 2.7 6 6v108c0 3.3-2.7 6-6 6h-148c-3.3 0-6-2.7-6-6z" stroke="#cc2264" stroke-width="3" fill="#f9d2de"/><use xlink:href="#H" transform="matrix(1,0,0,1,1332,326.1611030478957) translate(42.72222222222223 26.77777777777778)"/><use xlink:href="#I" transform="matrix(1,0,0,1,1332,326.1611030478957) translate(23.030864197530867 53.44444444444445)"/><use xlink:href="#J" transform="matrix(1,0,0,1,1332,326.1611030478957) translate(30.376543209876544 80.11111111111111)"/><path d="M1032.25 376h-32.05v-2h32.05zm285.25-.84h-49.55v-2h49.55z" fill="#5e5e5e"/><path d="M1318.5 375.16h-1.03v-2h1.03zM999.2 379.64L984.94 375l14.26-4.64z" fill="#5e5e5e"/><path d="M1000.2 381l-18.5-6 18.5-6zm-12.03-6l10.03 3.26v-6.52z" fill="#5e5e5e"/><use xlink:href="#K" transform="matrix(1,0,0,1,1032.248148148148,363.9138848572811) translate(0 14.222222222222223)"/><use xlink:href="#L" transform="matrix(1,0,0,1,1032.248148148148,363.9138848572811) translate(45.38271604938272 14.222222222222223)"/><use xlink:href="#M" transform="matrix(1,0,0,1,1032.248148148148,363.9138848572811) translate(122.27160493827161 14.222222222222223)"/><use xlink:href="#N" transform="matrix(1,0,0,1,1032.248148148148,363.9138848572811) translate(177.5308641975309 14.222222222222223)"/><path d="M506-260.28l15 1.77 13.86-11.07-13.85-13.2-15 1.8v20.7zM547.47-300.84l8.52-2.1 6.25 25.84L556-243l-8.53-1.2v-56.64z" fill="#692f56"/><path d="M556-245.37l6.98 3.68v-57.8l-7-3.43v57.56z" fill="#ad688b"/><path d="M547.47-252.43l8.52 1.22-35 29.95-9.36-22.48 35.83-8.7z" fill="#cfb2c1"/><path d="M494.52-240.44l-8.52 2.12-4.83-58.85 13.35 2.06v54.66z" fill="#ad688b"/><path d="M494.52-288.82l-8.5-1.22L521-320l9.36 22.48-35.84 8.7z" fill="#512843"/><path d="M530.36-243.75l-22.68-5.5-9.03 1.7 22.4 25.36 9.3-21.55z" fill="#cfb2c1"/><path d="M511.64-297.53l9.32-22.45 22.4 26.28-9.05 1.68-22.66-5.5z" fill="#512843"/><path d="M536-260.28l-15 1.77v-24.27l15 1.8v20.7zM563-241.7l-42 20.45V-241l37.3-10.9 2.55.74 2.14 9.47z" fill="#ad688b"/><path d="M498.65-247.55L521-241v19.72l-22.35-10.88v-15.4z" fill="#692f56"/><path d="M543.35-293.7L521-300.26v-19.73l22.35 10.88v15.4z" fill="#ad688b"/><path d="M479-299.55L521-320v19.75L479-288v-11.55z" fill="#692f56"/><path d="M486-295.15l-7-4.4v57.8l7 3.43v-56.83z" fill="#692f56"/><g><use xlink:href="#O" transform="matrix(1,0,0,1,479.0130624092891,-221.24165457184338) translate(3.79012345679012 17.77777777777778)"/><use xlink:href="#P" transform="matrix(1,0,0,1,479.0130624092891,-221.24165457184338) translate(6.876543209876544 44.44444444444444)"/><use xlink:href="#Q" transform="matrix(1,0,0,1,479.0130624092891,-221.24165457184338) translate(21.04320987654321 71.11111111111111)"/></g><path d="M430.5-58.08h-2v-90.45h2zm30-201.54h-24.86l-2.64.7-1.78 1.8-.7 2.63v84.63h-2v-84.88l.9-3.42 2.54-2.53 3.4-.92h25.15z" fill="#5e5e5e"/><path d="M430.5-57.08h-2v-1.03h2zM475.78-260.62L461.5-256v-9.26z" fill="#5e5e5e"/><path d="M479-260.62l-18.5 6v-12zm-16.5 3.26l10.04-3.26-10.03-3.26z" fill="#5e5e5e"/><g><use xlink:href="#R" transform="matrix(1,0,0,1,390.12381515526187,-169.86666666666648) translate(0 14.222222222222223)"/><use xlink:href="#S" transform="matrix(1,0,0,1,390.12381515526187,-169.86666666666648) translate(31.506172839506178 14.222222222222223)"/></g><path d="M1192.5-294c0-3.3 2.7-6 6-6h148c3.3 0 6 2.7 6 6v108c0 3.3-2.7 6-6 6h-148c-3.3 0-6-2.7-6-6z" stroke="#cc2264" stroke-width="3" fill="#f9d2de"/><g><use xlink:href="#H" transform="matrix(1,0,0,1,1204.5000000000005,-288) translate(42.72222222222223 26.77777777777778)"/><use xlink:href="#T" transform="matrix(1,0,0,1,1204.5000000000005,-288) translate(26.209876543209873 53.44444444444445)"/><use xlink:href="#U" transform="matrix(1,0,0,1,1204.5000000000005,-288) translate(29.728395061728392 80.11111111111111)"/></g><path d="M1170.5-58.08h-2v-70.83h2zm2.38-181l-1.73.72-.64 1.55v86.56h-2v-86.97l1.12-2.7 2.5-1.02z" fill="#5e5e5e"/><path d="M1170.5-57.08h-2v-1.03h2zM1187.76-240l-14.26 4.64v-9.28z" fill="#5e5e5e"/><path d="M1191-240l-18.5 6v-12zm-16.5 3.26l10.03-3.26-10.03-3.26z" fill="#5e5e5e"/><g><use xlink:href="#R" transform="matrix(1,0,0,1,1130.1238151552618,-150.2399973857726) translate(0 14.222222222222223)"/><use xlink:href="#S" transform="matrix(1,0,0,1,1130.1238151552618,-150.2399973857726) translate(31.506172839506178 14.222222222222223)"/></g><path d="M80-354c0-3.3 2.7-6 6-6h293c3.3 0 6 2.7 6 6v67.33c0 3.32-2.7 6-6 6H86c-3.3 0-6-2.68-6-6z" stroke="#000" stroke-opacity="0" stroke-width="3" fill="#fff" fill-opacity="0"/><g><use xlink:href="#V" transform="matrix(1,0,0,1,85,-355) translate(0 23.11111111111111)"/><use xlink:href="#W" transform="matrix(1,0,0,1,85,-355) translate(73.66666666666667 23.11111111111111)"/></g><path d="M815-354c0-3.3 2.7-6 6-6h293c3.3 0 6 2.7 6 6v67.33c0 3.32-2.7 6-6 6H821c-3.3 0-6-2.68-6-6z" stroke="#000" stroke-opacity="0" stroke-width="3" fill="#fff" fill-opacity="0"/><g><use xlink:href="#X" transform="matrix(1,0,0,1,819.9999999999999,-355) translate(0 23.11111111111111)"/><use xlink:href="#Y" transform="matrix(1,0,0,1,819.9999999999999,-355) translate(83.2962962962963 23.11111111111111)"/><use xlink:href="#Z" transform="matrix(1,0,0,1,819.9999999999999,-355) translate(0 57.77777777777777)"/></g><path d="M890.2 336c0-3.3 2.7-6 6-6h78c3.3 0 6 2.7 6 6v78c0 3.3-2.7 6-6 6h-78c-3.3 0-6-2.7-6-6z" stroke="#d86613" stroke-width="3" fill="#ffdba9"/><g><use xlink:href="#aa" transform="matrix(1,0,0,1,902.1999999999999,342) translate(-23.617283950617278 25.888888888888886)"/><use xlink:href="#ab" transform="matrix(1,0,0,1,902.1999999999999,342) translate(18.20987654320988 47.22222222222222)"/></g><path d="M890.2-56.92c0-3.3 2.7-6 6-6h78c3.3 0 6 2.7 6 6v78c0 3.3-2.7 6-6 6h-78c-3.3 0-6-2.7-6-6z" stroke="#d86613" stroke-width="3" fill="#ffdba9"/><g><use xlink:href="#ac" transform="matrix(1,0,0,1,902.1999999999999,-50.919448476052196) translate(14.7283950617284 26.59722222222222)"/><use xlink:href="#ad" transform="matrix(1,0,0,1,902.1999999999999,-50.919448476052196) translate(13.296296296296301 47.93055555555555)"/></g><defs><path d="M238-95c0 69-44 99-111 99C63 4 22-25 22-93v-155h51v151c-1 38 19 59 55 60 90 1 49-130 58-211h52v153" id="ae"/><path d="M135-194c53 0 70 44 70 98 0 56-19 98-73 100-31 1-45-17-59-34 3 33 2 69 2 105H25l-1-265h48c2 10 0 23 3 31 11-24 29-35 60-35zM114-30c33 0 39-31 40-66 0-38-9-64-40-64-56 0-55 130 0 130" id="af"/><path d="M25 0v-261h50V0H25" id="ag"/><path d="M110-194c64 0 96 36 96 99 0 64-35 99-97 99-61 0-95-36-95-99 0-62 34-99 96-99zm-1 164c35 0 45-28 45-65 0-40-10-65-43-65-34 0-45 26-45 65 0 36 10 65 43 65" id="ah"/><path d="M133-34C117-15 103 5 69 4 32 3 11-16 11-54c-1-60 55-63 116-61 1-26-3-47-28-47-18 1-26 9-28 27l-52-2c7-38 36-58 82-57s74 22 75 68l1 82c-1 14 12 18 25 15v27c-30 8-71 5-69-32zm-48 3c29 0 43-24 42-57-32 0-66-3-65 30 0 17 8 27 23 27" id="ai"/><path d="M88-194c31-1 46 15 58 34l-1-101h50l1 261h-48c-2-10 0-23-3-31C134-8 116 4 84 4 32 4 16-41 15-95c0-56 19-97 73-99zm17 164c33 0 40-30 41-66 1-37-9-64-41-64s-38 30-39 65c0 43 13 65 39 65" id="aj"/><g id="a"><use transform="matrix(0.03765432098765432,0,0,0.03765432098765432,0,0)" xlink:href="#ae"/><use transform="matrix(0.03765432098765432,0,0,0.03765432098765432,9.752469135802468,0)" xlink:href="#af"/><use transform="matrix(0.03765432098765432,0,0,0.03765432098765432,17.998765432098764,0)" xlink:href="#ag"/><use transform="matrix(0.03765432098765432,0,0,0.03765432098765432,21.764197530864195,0)" xlink:href="#ah"/><use transform="matrix(0.03765432098765432,0,0,0.03765432098765432,30.010493827160488,0)" xlink:href="#ai"/><use transform="matrix(0.03765432098765432,0,0,0.03765432098765432,37.54135802469135,0)" xlink:href="#aj"/></g><path d="M4 7l51-268h42L46 7H4" id="ak"/><use transform="matrix(0.03765432098765432,0,0,0.03765432098765432,0,0)" xlink:href="#ak" id="b"/><path d="M24-248c120-7 223 5 221 122C244-46 201 0 124 0H24v-248zM76-40c74 7 117-18 117-86 0-67-45-88-117-82v168" id="al"/><path d="M25-224v-37h50v37H25zM25 0v-190h50V0H25" id="am"/><path d="M135-150c-39-12-60 13-60 57V0H25l-1-190h47c2 13-1 29 3 40 6-28 27-53 61-41v41" id="an"/><path d="M115-3C79 11 28 4 28-45v-112H4v-33h27l15-45h31v45h36v33H77v99c-1 23 16 31 38 25v30" id="ao"/><path d="M123 10C108 53 80 86 19 72V37c35 8 53-11 59-39L3-190h52l48 148c12-52 28-100 44-148h51" id="ap"/><g id="c"><use transform="matrix(0.03765432098765432,0,0,0.03765432098765432,0,0)" xlink:href="#al"/><use transform="matrix(0.03765432098765432,0,0,0.03765432098765432,9.752469135802468,0)" xlink:href="#am"/><use transform="matrix(0.03765432098765432,0,0,0.03765432098765432,13.5179012345679,0)" xlink:href="#an"/><use transform="matrix(0.03765432098765432,0,0,0.03765432098765432,18.789506172839502,0)" xlink:href="#ao"/><use transform="matrix(0.03765432098765432,0,0,0.03765432098765432,23.270370370370365,0)" xlink:href="#ap"/></g><path d="M182-130c37 4 62 22 62 59C244 23 116-4 24 0v-248c84 5 203-23 205 63 0 31-19 50-47 55zM76-148c40-3 101 13 101-30 0-44-60-28-101-31v61zm0 110c48-3 116 14 116-37 0-48-69-32-116-35v72" id="aq"/><path d="M85 4C-2 5 27-109 22-190h50c7 57-23 150 33 157 60-5 35-97 40-157h50l1 190h-47c-2-12 1-28-3-38-12 25-28 42-61 42" id="ar"/><path d="M190-63c-7 42-38 67-86 67-59 0-84-38-90-98-12-110 154-137 174-36l-49 2c-2-19-15-32-35-32-30 0-35 28-38 64-6 74 65 87 74 30" id="as"/><path d="M147 0L96-86 75-71V0H25v-261h50v150l67-79h53l-66 74L201 0h-54" id="at"/><path d="M185-48c-13 30-37 53-82 52C43 2 14-33 14-96s30-98 90-98c62 0 83 45 84 108H66c0 31 8 55 39 56 18 0 30-7 34-22zm-45-69c5-46-57-63-70-21-2 6-4 13-4 21h74" id="au"/><g id="d"><use transform="matrix(0.03765432098765432,0,0,0.03765432098765432,0,0)" xlink:href="#aq"/><use transform="matrix(0.03765432098765432,0,0,0.03765432098765432,9.752469135802468,0)" xlink:href="#ar"/><use transform="matrix(0.03765432098765432,0,0,0.03765432098765432,17.998765432098764,0)" xlink:href="#as"/><use transform="matrix(0.03765432098765432,0,0,0.03765432098765432,25.52962962962963,0)" xlink:href="#at"/><use transform="matrix(0.03765432098765432,0,0,0.03765432098765432,33.06049382716049,0)" xlink:href="#au"/><use transform="matrix(0.03765432098765432,0,0,0.03765432098765432,40.59135802469136,0)" xlink:href="#ao"/></g><path d="M169-182c-1-43-94-46-97-3 18 66 151 10 154 114 3 95-165 93-204 36-6-8-10-19-12-30l50-8c3 46 112 56 116 5-17-69-150-10-154-114-4-87 153-88 188-35 5 8 8 18 10 28" id="av"/><path d="M175 0L67-191c6 58 2 128 3 191H24v-248h59L193-55c-6-58-2-129-3-193h46V0h-61" id="aw"/><g id="e"><use transform="matrix(0.03765432098765432,0,0,0.03765432098765432,0,0)" xlink:href="#av"/><use transform="matrix(0.03765432098765432,0,0,0.03765432098765432,9.037037037037036,0)" xlink:href="#aw"/><use transform="matrix(0.03765432098765432,0,0,0.03765432098765432,18.789506172839502,0)" xlink:href="#av"/></g><path d="M232-93c-1 65-40 97-104 97C67 4 28-28 28-90v-158h33c8 89-33 224 67 224 102 0 64-133 71-224h33v155" id="ax"/><path d="M115-194c55 1 70 41 70 98S169 2 115 4C84 4 66-9 55-30l1 105H24l-1-265h31l2 30c10-21 28-34 59-34zm-8 174c40 0 45-34 45-75s-6-73-45-74c-42 0-51 32-51 76 0 43 10 73 51 73" id="ay"/><path d="M24 0v-261h32V0H24" id="az"/><path d="M100-194c62-1 85 37 85 99 1 63-27 99-86 99S16-35 15-95c0-66 28-99 85-99zM99-20c44 1 53-31 53-75 0-43-8-75-51-75s-53 32-53 75 10 74 51 75" id="aA"/><path d="M141-36C126-15 110 5 73 4 37 3 15-17 15-53c-1-64 63-63 125-63 3-35-9-54-41-54-24 1-41 7-42 31l-33-3c5-37 33-52 76-52 45 0 72 20 72 64v82c-1 20 7 32 28 27v20c-31 9-61-2-59-35zM48-53c0 20 12 33 32 33 41-3 63-29 60-74-43 2-92-5-92 41" id="aB"/><path d="M85-194c31 0 48 13 60 33l-1-100h32l1 261h-30c-2-10 0-23-3-31C134-8 116 4 85 4 32 4 16-35 15-94c0-66 23-100 70-100zm9 24c-40 0-46 34-46 75 0 40 6 74 45 74 42 0 51-32 51-76 0-42-9-74-50-73" id="aC"/><g id="f"><use transform="matrix(0.03765432098765432,0,0,0.03765432098765432,0,0)" xlink:href="#ax"/><use transform="matrix(0.03765432098765432,0,0,0.03765432098765432,9.752469135802468,0)" xlink:href="#ay"/><use transform="matrix(0.03765432098765432,0,0,0.03765432098765432,17.28333333333333,0)" xlink:href="#az"/><use transform="matrix(0.03765432098765432,0,0,0.03765432098765432,20.258024691358024,0)" xlink:href="#aA"/><use transform="matrix(0.03765432098765432,0,0,0.03765432098765432,27.788888888888888,0)" xlink:href="#aB"/><use transform="matrix(0.03765432098765432,0,0,0.03765432098765432,35.31975308641975,0)" xlink:href="#aC"/></g><path d="M101-234c-31-9-42 10-38 44h38v23H63V0H32v-167H5v-23h27c-7-52 17-82 69-68v24" id="aD"/><path d="M24-231v-30h32v30H24zM24 0v-190h32V0H24" id="aE"/><path d="M100-194c63 0 86 42 84 106H49c0 40 14 67 53 68 26 1 43-12 49-29l28 8c-11 28-37 45-77 45C44 4 14-33 15-96c1-61 26-98 85-98zm52 81c6-60-76-77-97-28-3 7-6 17-6 28h103" id="aF"/><path d="M135-143c-3-34-86-38-87 0 15 53 115 12 119 90S17 21 10-45l28-5c4 36 97 45 98 0-10-56-113-15-118-90-4-57 82-63 122-42 12 7 21 19 24 35" id="aG"/><g id="g"><use transform="matrix(0.03765432098765432,0,0,0.03765432098765432,0,0)" xlink:href="#aD"/><use transform="matrix(0.03765432098765432,0,0,0.03765432098765432,3.765432098765432,0)" xlink:href="#aE"/><use transform="matrix(0.03765432098765432,0,0,0.03765432098765432,6.740123456790123,0)" xlink:href="#az"/><use transform="matrix(0.03765432098765432,0,0,0.03765432098765432,9.714814814814813,0)" xlink:href="#aF"/><use transform="matrix(0.03765432098765432,0,0,0.03765432098765432,17.245679012345676,0)" xlink:href="#aG"/></g><path d="M24-248c93 1 206-16 204 79-1 75-69 88-152 82V0H24v-248zm52 121c47 0 100 7 100-41 0-47-54-39-100-39v80" id="aH"/><g id="h"><use transform="matrix(0.03765432098765432,0,0,0.03765432098765432,0,0)" xlink:href="#aH"/><use transform="matrix(0.03765432098765432,0,0,0.03765432098765432,9.037037037037036,0)" xlink:href="#ag"/><use transform="matrix(0.03765432098765432,0,0,0.03765432098765432,12.802469135802468,0)" xlink:href="#ai"/><use transform="matrix(0.03765432098765432,0,0,0.03765432098765432,20.333333333333332,0)" xlink:href="#ap"/></g><path d="M230 0l2-204L168 0h-37L68-204 70 0H24v-248h70l56 185 57-185h69V0h-46" id="aI"/><path d="M147 0H94L2-248h55l64 206c17-72 42-137 63-206h54" id="aJ"/><path d="M67-125c0 53 21 87 73 88 37 1 54-22 65-47l45 17C233-25 199 4 140 4 58 4 20-42 15-125 8-235 124-281 211-232c18 10 29 29 36 50l-46 12c-8-25-30-41-62-41-52 0-71 34-72 86" id="aK"/><g id="i"><use transform="matrix(0.03765432098765432,0,0,0.03765432098765432,0,0)" xlink:href="#aI"/><use transform="matrix(0.03765432098765432,0,0,0.03765432098765432,11.258641975308642,0)" xlink:href="#aJ"/><use transform="matrix(0.03765432098765432,0,0,0.03765432098765432,20.29567901234568,0)" xlink:href="#aK"/></g><path d="M135-194c87-1 58 113 63 194h-50c-7-57 23-157-34-157-59 0-34 97-39 157H25l-1-190h47c2 12-1 28 3 38 12-26 28-41 61-42" id="aL"/><path d="M137-138c1-29-70-34-71-4 15 46 118 7 119 86 1 83-164 76-172 9l43-7c4 19 20 25 44 25 33 8 57-30 24-41C81-84 22-81 20-136c-2-80 154-74 161-7" id="aM"/><path d="M195-6C206 82 75 100 31 46c-4-6-6-13-8-21l49-6c3 16 16 24 34 25 40 0 42-37 40-79-11 22-30 35-61 35-53 0-70-43-70-97 0-56 18-96 73-97 30 0 46 14 59 34l2-30h47zm-90-29c32 0 41-27 41-63 0-35-9-62-40-62-32 0-39 29-40 63 0 36 9 62 39 62" id="aN"/><path d="M220-157c-53 9-28 100-34 157h-49v-107c1-27-5-49-29-50C55-147 81-57 75 0H25l-1-190h47c2 12-1 28 3 38 10-53 101-56 108 0 13-22 24-43 59-42 82 1 51 116 57 194h-49v-107c-1-25-5-48-29-50" id="aO"/><g id="j"><use transform="matrix(0.03765432098765432,0,0,0.03765432098765432,0,0)" xlink:href="#aK"/><use transform="matrix(0.03765432098765432,0,0,0.03765432098765432,9.752469135802468,0)" xlink:href="#ah"/><use transform="matrix(0.03765432098765432,0,0,0.03765432098765432,17.998765432098764,0)" xlink:href="#aL"/><use transform="matrix(0.03765432098765432,0,0,0.03765432098765432,26.245061728395058,0)" xlink:href="#aM"/><use transform="matrix(0.03765432098765432,0,0,0.03765432098765432,33.77592592592592,0)" xlink:href="#am"/><use transform="matrix(0.03765432098765432,0,0,0.03765432098765432,37.54135802469135,0)" xlink:href="#aN"/><use transform="matrix(0.03765432098765432,0,0,0.03765432098765432,45.78765432098764,0)" xlink:href="#aL"/><use transform="matrix(0.03765432098765432,0,0,0.03765432098765432,54.033950617283935,0)" xlink:href="#aO"/><use transform="matrix(0.03765432098765432,0,0,0.03765432098765432,66.08333333333331,0)" xlink:href="#au"/><use transform="matrix(0.03765432098765432,0,0,0.03765432098765432,73.61419753086417,0)" xlink:href="#aL"/><use transform="matrix(0.03765432098765432,0,0,0.03765432098765432,81.86049382716047,0)" xlink:href="#ao"/></g><path d="M199 0l-22-63H83L61 0H9l90-248h61L250 0h-51zm-33-102l-36-108c-10 38-24 72-36 108h72" id="aP"/><path d="M24 0v-248h52V0H24" id="aQ"/><g id="k"><use transform="matrix(0.03765432098765432,0,0,0.03765432098765432,0,0)" xlink:href="#aP"/><use transform="matrix(0.03765432098765432,0,0,0.03765432098765432,9.752469135802468,0)" xlink:href="#aH"/><use transform="matrix(0.03765432098765432,0,0,0.03765432098765432,18.789506172839502,0)" xlink:href="#aQ"/></g><path fill="#333" d="M182-130c37 4 62 22 62 59C244 23 116-4 24 0v-248c84 5 203-23 205 63 0 31-19 50-47 55zM76-148c40-3 101 13 101-30 0-44-60-28-101-31v61zm0 110c48-3 116 14 116-37 0-48-69-32-116-35v72" id="aR"/><path fill="#333" d="M133-34C117-15 103 5 69 4 32 3 11-16 11-54c-1-60 55-63 116-61 1-26-3-47-28-47-18 1-26 9-28 27l-52-2c7-38 36-58 82-57s74 22 75 68l1 82c-1 14 12 18 25 15v27c-30 8-71 5-69-32zm-48 3c29 0 43-24 42-57-32 0-66-3-65 30 0 17 8 27 23 27" id="aS"/><path fill="#333" d="M190-63c-7 42-38 67-86 67-59 0-84-38-90-98-12-110 154-137 174-36l-49 2c-2-19-15-32-35-32-30 0-35 28-38 64-6 74 65 87 74 30" id="aT"/><path fill="#333" d="M147 0L96-86 75-71V0H25v-261h50v150l67-79h53l-66 74L201 0h-54" id="aU"/><path fill="#333" d="M185-48c-13 30-37 53-82 52C43 2 14-33 14-96s30-98 90-98c62 0 83 45 84 108H66c0 31 8 55 39 56 18 0 30-7 34-22zm-45-69c5-46-57-63-70-21-2 6-4 13-4 21h74" id="aV"/><path fill="#333" d="M135-194c87-1 58 113 63 194h-50c-7-57 23-157-34-157-59 0-34 97-39 157H25l-1-190h47c2 12-1 28 3 38 12-26 28-41 61-42" id="aW"/><path fill="#333" d="M88-194c31-1 46 15 58 34l-1-101h50l1 261h-48c-2-10 0-23-3-31C134-8 116 4 84 4 32 4 16-41 15-95c0-56 19-97 73-99zm17 164c33 0 40-30 41-66 1-37-9-64-41-64s-38 30-39 65c0 43 13 65 39 65" id="aX"/><g id="l"><use transform="matrix(0.04938271604938272,0,0,0.04938271604938272,0,0)" xlink:href="#aR"/><use transform="matrix(0.04938271604938272,0,0,0.04938271604938272,12.790123456790125,0)" xlink:href="#aS"/><use transform="matrix(0.04938271604938272,0,0,0.04938271604938272,22.66666666666667,0)" xlink:href="#aT"/><use transform="matrix(0.04938271604938272,0,0,0.04938271604938272,32.543209876543216,0)" xlink:href="#aU"/><use transform="matrix(0.04938271604938272,0,0,0.04938271604938272,42.41975308641976,0)" xlink:href="#aV"/><use transform="matrix(0.04938271604938272,0,0,0.04938271604938272,52.2962962962963,0)" xlink:href="#aW"/><use transform="matrix(0.04938271604938272,0,0,0.04938271604938272,63.111111111111114,0)" xlink:href="#aX"/></g><path fill="#333" d="M114-157C55-157 80-60 75 0H25v-261h50l-1 109c12-26 28-41 61-42 86-1 58 113 63 194h-50c-7-57 23-157-34-157" id="aY"/><g id="m"><use transform="matrix(0.04938271604938272,0,0,0.04938271604938272,0,0)" xlink:href="#aT"/><use transform="matrix(0.04938271604938272,0,0,0.04938271604938272,9.876543209876544,0)" xlink:href="#aY"/><use transform="matrix(0.04938271604938272,0,0,0.04938271604938272,20.69135802469136,0)" xlink:href="#aV"/><use transform="matrix(0.04938271604938272,0,0,0.04938271604938272,30.567901234567906,0)" xlink:href="#aT"/><use transform="matrix(0.04938271604938272,0,0,0.04938271604938272,40.44444444444445,0)" xlink:href="#aU"/></g><path fill="#333" d="M135-150c-39-12-60 13-60 57V0H25l-1-190h47c2 13-1 29 3 40 6-28 27-53 61-41v41" id="aZ"/><path fill="#333" d="M137-138c1-29-70-34-71-4 15 46 118 7 119 86 1 83-164 76-172 9l43-7c4 19 20 25 44 25 33 8 57-30 24-41C81-84 22-81 20-136c-2-80 154-74 161-7" id="ba"/><path fill="#333" d="M85 4C-2 5 27-109 22-190h50c7 57-23 150 33 157 60-5 35-97 40-157h50l1 190h-47c-2-12 1-28-3-38-12 25-28 42-61 42" id="bb"/><path fill="#333" d="M25 0v-261h50V0H25" id="bc"/><path fill="#333" d="M115-3C79 11 28 4 28-45v-112H4v-33h27l15-45h31v45h36v33H77v99c-1 23 16 31 38 25v30" id="bd"/><g id="n"><use transform="matrix(0.04938271604938272,0,0,0.04938271604938272,0,0)" xlink:href="#aZ"/><use transform="matrix(0.04938271604938272,0,0,0.04938271604938272,6.913580246913581,0)" xlink:href="#aV"/><use transform="matrix(0.04938271604938272,0,0,0.04938271604938272,16.790123456790127,0)" xlink:href="#ba"/><use transform="matrix(0.04938271604938272,0,0,0.04938271604938272,26.666666666666668,0)" xlink:href="#bb"/><use transform="matrix(0.04938271604938272,0,0,0.04938271604938272,37.48148148148149,0)" xlink:href="#bc"/><use transform="matrix(0.04938271604938272,0,0,0.04938271604938272,42.41975308641976,0)" xlink:href="#bd"/><use transform="matrix(0.04938271604938272,0,0,0.04938271604938272,48.296296296296305,0)" xlink:href="#ba"/></g><path d="M76-208v77h127v40H76V0H24v-248h183v40H76" id="be"/><path d="M240-174c0 40-23 61-54 70L253 0h-59l-57-94H76V0H24v-248c93 4 217-23 216 74zM76-134c48-2 112 12 112-38 0-48-66-32-112-35v73" id="bf"/><path d="M140-251c80 0 125 45 125 126S219 4 139 4C58 4 15-44 15-125s44-126 125-126zm-1 214c52 0 73-35 73-88 0-50-21-86-72-86-52 0-73 35-73 86s22 88 72 88" id="bg"/><path d="M136-208V0H84v-208H4v-40h212v40h-80" id="bh"/><path d="M24 0v-248h195v40H76v63h132v40H76v65h150V0H24" id="bi"/><g id="o"><use transform="matrix(0.03765432098765432,0,0,0.03765432098765432,0,0)" xlink:href="#be"/><use transform="matrix(0.03765432098765432,0,0,0.03765432098765432,8.246296296296295,0)" xlink:href="#bf"/><use transform="matrix(0.03765432098765432,0,0,0.03765432098765432,17.998765432098764,0)" xlink:href="#bg"/><use transform="matrix(0.03765432098765432,0,0,0.03765432098765432,28.541975308641973,0)" xlink:href="#aw"/><use transform="matrix(0.03765432098765432,0,0,0.03765432098765432,38.29444444444444,0)" xlink:href="#bh"/><use transform="matrix(0.03765432098765432,0,0,0.03765432098765432,46.54074074074073,0)" xlink:href="#bi"/><use transform="matrix(0.03765432098765432,0,0,0.03765432098765432,55.577777777777776,0)" xlink:href="#aw"/><use transform="matrix(0.03765432098765432,0,0,0.03765432098765432,65.33024691358024,0)" xlink:href="#al"/></g><path d="M231 0h-52l-39-155L100 0H48L-1-190h46L77-45c9-52 24-97 36-145h53l37 145 32-145h46" id="bj"/><g id="p"><use transform="matrix(0.03765432098765432,0,0,0.03765432098765432,0,0)" xlink:href="#aq"/><use transform="matrix(0.03765432098765432,0,0,0.03765432098765432,9.752469135802468,0)" xlink:href="#an"/><use transform="matrix(0.03765432098765432,0,0,0.03765432098765432,15.024074074074072,0)" xlink:href="#ah"/><use transform="matrix(0.03765432098765432,0,0,0.03765432098765432,23.270370370370365,0)" xlink:href="#bj"/><use transform="matrix(0.03765432098765432,0,0,0.03765432098765432,33.813580246913574,0)" xlink:href="#aM"/><use transform="matrix(0.03765432098765432,0,0,0.03765432098765432,41.344444444444434,0)" xlink:href="#au"/><use transform="matrix(0.03765432098765432,0,0,0.03765432098765432,48.875308641975295,0)" xlink:href="#an"/></g><path d="M160-131c35 5 61 23 61 61C221 17 115-2 30 0v-248c76 3 177-17 177 60 0 33-19 50-47 57zm-97-11c50-1 110 9 110-42 0-47-63-36-110-37v79zm0 115c55-2 124 14 124-45 0-56-70-42-124-44v89" id="bk"/><path d="M96-169c-40 0-48 33-48 73s9 75 48 75c24 0 41-14 43-38l32 2c-6 37-31 61-74 61-59 0-76-41-82-99-10-93 101-131 147-64 4 7 5 14 7 22l-32 3c-4-21-16-35-41-35" id="bl"/><path d="M143 0L79-87 56-68V0H24v-261h32v163l83-92h37l-77 82L181 0h-38" id="bm"/><path d="M117-194c89-4 53 116 60 194h-32v-121c0-31-8-49-39-48C34-167 62-67 57 0H25l-1-190h30c1 10-1 24 2 32 11-22 29-35 61-36" id="bn"/><g id="q"><use transform="matrix(0.03765432098765432,0,0,0.03765432098765432,0,0)" xlink:href="#bk"/><use transform="matrix(0.03765432098765432,0,0,0.03765432098765432,9.037037037037036,0)" xlink:href="#aB"/><use transform="matrix(0.03765432098765432,0,0,0.03765432098765432,16.5679012345679,0)" xlink:href="#bl"/><use transform="matrix(0.03765432098765432,0,0,0.03765432098765432,23.345679012345677,0)" xlink:href="#bm"/><use transform="matrix(0.03765432098765432,0,0,0.03765432098765432,30.123456790123456,0)" xlink:href="#aF"/><use transform="matrix(0.03765432098765432,0,0,0.03765432098765432,37.654320987654316,0)" xlink:href="#bn"/><use transform="matrix(0.03765432098765432,0,0,0.03765432098765432,45.18518518518517,0)" xlink:href="#aC"/></g><path d="M106-169C34-169 62-67 57 0H25v-261h32l-1 103c12-21 28-36 61-36 89 0 53 116 60 194h-32v-121c2-32-8-49-39-48" id="bo"/><g id="r"><use transform="matrix(0.03765432098765432,0,0,0.03765432098765432,0,0)" xlink:href="#bl"/><use transform="matrix(0.03765432098765432,0,0,0.03765432098765432,6.777777777777777,0)" xlink:href="#bo"/><use transform="matrix(0.03765432098765432,0,0,0.03765432098765432,14.30864197530864,0)" xlink:href="#aF"/><use transform="matrix(0.03765432098765432,0,0,0.03765432098765432,21.83950617283951,0)" xlink:href="#bl"/><use transform="matrix(0.03765432098765432,0,0,0.03765432098765432,28.617283950617285,0)" xlink:href="#bm"/></g><path d="M210-169c-67 3-38 105-44 169h-31v-121c0-29-5-50-35-48C34-165 62-65 56 0H25l-1-190h30c1 10-1 24 2 32 10-44 99-50 107 0 11-21 27-35 58-36 85-2 47 119 55 194h-31v-121c0-29-5-49-35-48" id="bp"/><path d="M115-194c53 0 69 39 70 98 0 66-23 100-70 100C84 3 66-7 56-30L54 0H23l1-261h32v101c10-23 28-34 59-34zm-8 174c40 0 45-34 45-75 0-40-5-75-45-74-42 0-51 32-51 76 0 43 10 73 51 73" id="bq"/><g id="s"><use transform="matrix(0.03765432098765432,0,0,0.03765432098765432,0,0)" xlink:href="#az"/><use transform="matrix(0.03765432098765432,0,0,0.03765432098765432,2.974691358024691,0)" xlink:href="#aB"/><use transform="matrix(0.03765432098765432,0,0,0.03765432098765432,10.505555555555555,0)" xlink:href="#bp"/><use transform="matrix(0.03765432098765432,0,0,0.03765432098765432,21.764197530864195,0)" xlink:href="#bq"/><use transform="matrix(0.03765432098765432,0,0,0.03765432098765432,29.29506172839506,0)" xlink:href="#aC"/><use transform="matrix(0.03765432098765432,0,0,0.03765432098765432,36.82592592592592,0)" xlink:href="#aB"/><use transform="matrix(0.03765432098765432,0,0,0.03765432098765432,44.35679012345678,0)" xlink:href="#aG"/></g><path d="M205 0l-28-72H64L36 0H1l101-248h38L239 0h-34zm-38-99l-47-123c-12 45-31 82-46 123h93" id="br"/><path d="M30-248c87 1 191-15 191 75 0 78-77 80-158 76V0H30v-248zm33 125c57 0 124 11 124-50 0-59-68-47-124-48v98" id="bs"/><path d="M33 0v-248h34V0H33" id="bt"/><g id="t"><use transform="matrix(0.03765432098765432,0,0,0.03765432098765432,0,0)" xlink:href="#br"/><use transform="matrix(0.03765432098765432,0,0,0.03765432098765432,9.037037037037036,0)" xlink:href="#bs"/><use transform="matrix(0.03765432098765432,0,0,0.03765432098765432,18.074074074074073,0)" xlink:href="#bt"/></g><path d="M84 4C-5 8 30-112 23-190h32v120c0 31 7 50 39 49 72-2 45-101 50-169h31l1 190h-30c-1-10 1-25-2-33-11 22-28 36-60 37" id="bu"/><path d="M59-47c-2 24 18 29 38 22v24C64 9 27 4 27-40v-127H5v-23h24l9-43h21v43h35v23H59v120" id="bv"/><g id="u"><use transform="matrix(0.03765432098765432,0,0,0.03765432098765432,0,0)" xlink:href="#bu"/><use transform="matrix(0.03765432098765432,0,0,0.03765432098765432,7.530864197530864,0)" xlink:href="#ay"/><use transform="matrix(0.03765432098765432,0,0,0.03765432098765432,15.061728395061728,0)" xlink:href="#aC"/><use transform="matrix(0.03765432098765432,0,0,0.03765432098765432,22.59259259259259,0)" xlink:href="#aB"/><use transform="matrix(0.03765432098765432,0,0,0.03765432098765432,30.123456790123456,0)" xlink:href="#bv"/><use transform="matrix(0.03765432098765432,0,0,0.03765432098765432,33.888888888888886,0)" xlink:href="#aF"/></g><path d="M145-31C134-9 116 4 85 4 32 4 16-35 15-94c0-59 17-99 70-100 32-1 48 14 60 33 0-11-1-24 2-32h30l-1 268h-32zM93-21c41 0 51-33 51-76s-8-73-50-73c-40 0-46 35-46 75s5 74 45 74" id="bw"/><g id="v"><use transform="matrix(0.03765432098765432,0,0,0.03765432098765432,0,0)" xlink:href="#bw"/><use transform="matrix(0.03765432098765432,0,0,0.03765432098765432,7.530864197530864,0)" xlink:href="#bu"/><use transform="matrix(0.03765432098765432,0,0,0.03765432098765432,15.061728395061728,0)" xlink:href="#aF"/><use transform="matrix(0.03765432098765432,0,0,0.03765432098765432,22.59259259259259,0)" xlink:href="#bu"/><use transform="matrix(0.03765432098765432,0,0,0.03765432098765432,30.123456790123456,0)" xlink:href="#aF"/></g><g id="w"><use transform="matrix(0.03765432098765432,0,0,0.03765432098765432,0,0)" xlink:href="#bk"/><use transform="matrix(0.03765432098765432,0,0,0.03765432098765432,9.037037037037036,0)" xlink:href="#aB"/><use transform="matrix(0.03765432098765432,0,0,0.03765432098765432,16.5679012345679,0)" xlink:href="#bl"/><use transform="matrix(0.03765432098765432,0,0,0.03765432098765432,23.345679012345677,0)" xlink:href="#bm"/><use transform="matrix(0.03765432098765432,0,0,0.03765432098765432,30.123456790123456,0)" xlink:href="#aF"/><use transform="matrix(0.03765432098765432,0,0,0.03765432098765432,37.654320987654316,0)" xlink:href="#bn"/><use transform="matrix(0.03765432098765432,0,0,0.03765432098765432,45.18518518518517,0)" xlink:href="#aC"/></g><g id="x"><use transform="matrix(0.03765432098765432,0,0,0.03765432098765432,0,0)" xlink:href="#bw"/><use transform="matrix(0.03765432098765432,0,0,0.03765432098765432,7.530864197530864,0)" xlink:href="#bu"/><use transform="matrix(0.03765432098765432,0,0,0.03765432098765432,15.061728395061728,0)" xlink:href="#aF"/><use transform="matrix(0.03765432098765432,0,0,0.03765432098765432,22.59259259259259,0)" xlink:href="#bu"/><use transform="matrix(0.03765432098765432,0,0,0.03765432098765432,30.123456790123456,0)" xlink:href="#aF"/><use transform="matrix(0.03765432098765432,0,0,0.03765432098765432,37.654320987654316,0)" xlink:href="#aG"/></g><g id="y"><use transform="matrix(0.03765432098765432,0,0,0.03765432098765432,0,0)" xlink:href="#ax"/><use transform="matrix(0.03765432098765432,0,0,0.03765432098765432,9.752469135802468,0)" xlink:href="#ay"/><use transform="matrix(0.03765432098765432,0,0,0.03765432098765432,17.28333333333333,0)" xlink:href="#aC"/><use transform="matrix(0.03765432098765432,0,0,0.03765432098765432,24.814197530864195,0)" xlink:href="#aB"/><use transform="matrix(0.03765432098765432,0,0,0.03765432098765432,32.34506172839506,0)" xlink:href="#bv"/><use transform="matrix(0.03765432098765432,0,0,0.03765432098765432,36.11049382716049,0)" xlink:href="#aF"/></g><path fill="#333" d="M24 0v-248h52v208h133V0H24" id="bx"/><path fill="#333" d="M110-194c64 0 96 36 96 99 0 64-35 99-97 99-61 0-95-36-95-99 0-62 34-99 96-99zm-1 164c35 0 45-28 45-65 0-40-10-65-43-65-34 0-45 26-45 65 0 36 10 65 43 65" id="by"/><g id="A"><use transform="matrix(0.03703703703703702,0,0,0.03703703703703702,0,0)" xlink:href="#bx"/><use transform="matrix(0.03703703703703702,0,0,0.03703703703703702,8.111111111111107,0)" xlink:href="#by"/><use transform="matrix(0.03703703703703702,0,0,0.03703703703703702,16.222222222222214,0)" xlink:href="#aT"/><use transform="matrix(0.03703703703703702,0,0,0.03703703703703702,23.62962962962962,0)" xlink:href="#aS"/><use transform="matrix(0.03703703703703702,0,0,0.03703703703703702,31.037037037037024,0)" xlink:href="#aU"/></g><path fill="#333" d="M169-182c-1-43-94-46-97-3 18 66 151 10 154 114 3 95-165 93-204 36-6-8-10-19-12-30l50-8c3 46 112 56 116 5-17-69-150-10-154-114-4-87 153-88 188-35 5 8 8 18 10 28" id="bz"/><path fill="#333" d="M128-127c34 4 56 21 59 58 7 91-148 94-172 28-4-9-6-17-7-26l51-5c1 24 16 35 40 36 23 0 39-12 38-36-1-31-31-36-65-34v-40c32 2 59-3 59-33 0-20-13-33-34-33s-33 13-35 32l-50-3c6-44 37-68 86-68 50 0 83 20 83 66 0 35-22 52-53 58" id="bA"/><g id="B"><use transform="matrix(0.03703703703703702,0,0,0.03703703703703702,0,0)" xlink:href="#bz"/><use transform="matrix(0.03703703703703702,0,0,0.03703703703703702,8.888888888888886,0)" xlink:href="#bA"/></g><path fill="#333" d="M135-194c52 0 70 43 70 98 0 56-19 99-73 100-30 1-46-15-58-35L72 0H24l1-261h50v104c11-23 29-37 60-37zM114-30c31 0 40-27 40-66 0-37-7-63-39-63s-41 28-41 65c0 36 8 64 40 64" id="bB"/><g id="C"><use transform="matrix(0.03703703703703702,0,0,0.03703703703703702,0,0)" xlink:href="#bB"/><use transform="matrix(0.03703703703703702,0,0,0.03703703703703702,8.111111111111107,0)" xlink:href="#bb"/><use transform="matrix(0.03703703703703702,0,0,0.03703703703703702,16.222222222222214,0)" xlink:href="#aT"/><use transform="matrix(0.03703703703703702,0,0,0.03703703703703702,23.62962962962962,0)" xlink:href="#aU"/><use transform="matrix(0.03703703703703702,0,0,0.03703703703703702,31.037037037037024,0)" xlink:href="#aV"/><use transform="matrix(0.03703703703703702,0,0,0.03703703703703702,38.44444444444443,0)" xlink:href="#bd"/></g><path fill="#333" d="M220-157c-53 9-28 100-34 157h-49v-107c1-27-5-49-29-50C55-147 81-57 75 0H25l-1-190h47c2 12-1 28 3 38 10-53 101-56 108 0 13-22 24-43 59-42 82 1 51 116 57 194h-49v-107c-1-25-5-48-29-50" id="bC"/><g id="D"><use transform="matrix(0.03703703703703702,0,0,0.03703703703703702,0,0)" xlink:href="#aV"/><use transform="matrix(0.03703703703703702,0,0,0.03703703703703702,7.407407407407404,0)" xlink:href="#bC"/><use transform="matrix(0.03703703703703702,0,0,0.03703703703703702,19.259259259259252,0)" xlink:href="#bb"/><use transform="matrix(0.03703703703703702,0,0,0.03703703703703702,27.37037037037036,0)" xlink:href="#bc"/><use transform="matrix(0.03703703703703702,0,0,0.03703703703703702,31.074074074074062,0)" xlink:href="#aS"/><use transform="matrix(0.03703703703703702,0,0,0.03703703703703702,38.48148148148147,0)" xlink:href="#bd"/><use transform="matrix(0.03703703703703702,0,0,0.03703703703703702,42.88888888888887,0)" xlink:href="#by"/><use transform="matrix(0.03703703703703702,0,0,0.03703703703703702,50.99999999999998,0)" xlink:href="#aZ"/></g><g id="E"><use transform="matrix(0.03703703703703702,0,0,0.03703703703703702,0,0)" xlink:href="#bx"/><use transform="matrix(0.03703703703703702,0,0,0.03703703703703702,8.111111111111107,0)" xlink:href="#by"/><use transform="matrix(0.03703703703703702,0,0,0.03703703703703702,16.222222222222214,0)" xlink:href="#aT"/><use transform="matrix(0.03703703703703702,0,0,0.03703703703703702,23.62962962962962,0)" xlink:href="#aS"/><use transform="matrix(0.03703703703703702,0,0,0.03703703703703702,31.037037037037024,0)" xlink:href="#bc"/></g><path fill="#333" d="M121-226c-27-7-43 5-38 36h38v33H83V0H34v-157H6v-33h28c-9-59 32-81 87-68v32" id="bD"/><path fill="#333" d="M25-224v-37h50v37H25zM25 0v-190h50V0H25" id="bE"/><g id="F"><use transform="matrix(0.03703703703703702,0,0,0.03703703703703702,0,0)" xlink:href="#bD"/><use transform="matrix(0.03703703703703702,0,0,0.03703703703703702,4.407407407407406,0)" xlink:href="#bE"/><use transform="matrix(0.03703703703703702,0,0,0.03703703703703702,8.111111111111107,0)" xlink:href="#bc"/><use transform="matrix(0.03703703703703702,0,0,0.03703703703703702,11.81481481481481,0)" xlink:href="#aV"/></g><path fill="#333" d="M123 10C108 53 80 86 19 72V37c35 8 53-11 59-39L3-190h52l48 148c12-52 28-100 44-148h51" id="bF"/><g id="G"><use transform="matrix(0.03703703703703702,0,0,0.03703703703703702,0,0)" xlink:href="#ba"/><use transform="matrix(0.03703703703703702,0,0,0.03703703703703702,7.407407407407404,0)" xlink:href="#bF"/><use transform="matrix(0.03703703703703702,0,0,0.03703703703703702,14.814814814814808,0)" xlink:href="#ba"/><use transform="matrix(0.03703703703703702,0,0,0.03703703703703702,22.222222222222214,0)" xlink:href="#bd"/><use transform="matrix(0.03703703703703702,0,0,0.03703703703703702,26.629629629629616,0)" xlink:href="#aV"/><use transform="matrix(0.03703703703703702,0,0,0.03703703703703702,34.03703703703702,0)" xlink:href="#bC"/></g><path fill="#333" d="M76-208v77h127v40H76V0H24v-248h183v40H76" id="bG"/><g id="H"><use transform="matrix(0.06172839506172839,0,0,0.06172839506172839,0,0)" xlink:href="#bG"/><use transform="matrix(0.06172839506172839,0,0,0.06172839506172839,13.518518518518517,0)" xlink:href="#aS"/><use transform="matrix(0.06172839506172839,0,0,0.06172839506172839,25.864197530864196,0)" xlink:href="#aU"/><use transform="matrix(0.06172839506172839,0,0,0.06172839506172839,38.20987654320987,0)" xlink:href="#aV"/></g><g id="I"><use transform="matrix(0.06172839506172839,0,0,0.06172839506172839,0,0)" xlink:href="#bB"/><use transform="matrix(0.06172839506172839,0,0,0.06172839506172839,13.518518518518517,0)" xlink:href="#aS"/><use transform="matrix(0.06172839506172839,0,0,0.06172839506172839,25.864197530864196,0)" xlink:href="#aT"/><use transform="matrix(0.06172839506172839,0,0,0.06172839506172839,38.20987654320987,0)" xlink:href="#aU"/><use transform="matrix(0.06172839506172839,0,0,0.06172839506172839,50.55555555555555,0)" xlink:href="#aV"/><use transform="matrix(0.06172839506172839,0,0,0.06172839506172839,62.90123456790123,0)" xlink:href="#aW"/><use transform="matrix(0.06172839506172839,0,0,0.06172839506172839,76.41975308641975,0)" xlink:href="#aX"/></g><g id="J"><use transform="matrix(0.06172839506172839,0,0,0.06172839506172839,0,0)" xlink:href="#aT"/><use transform="matrix(0.06172839506172839,0,0,0.06172839506172839,12.345679012345679,0)" xlink:href="#aY"/><use transform="matrix(0.06172839506172839,0,0,0.06172839506172839,25.864197530864196,0)" xlink:href="#aV"/><use transform="matrix(0.06172839506172839,0,0,0.06172839506172839,38.20987654320987,0)" xlink:href="#aT"/><use transform="matrix(0.06172839506172839,0,0,0.06172839506172839,50.55555555555555,0)" xlink:href="#aU"/><use transform="matrix(0.06172839506172839,0,0,0.06172839506172839,62.90123456790123,0)" xlink:href="#ba"/></g><g id="K"><use transform="matrix(0.04938271604938272,0,0,0.04938271604938272,0,0)" xlink:href="#bG"/><use transform="matrix(0.04938271604938272,0,0,0.04938271604938272,10.814814814814815,0)" xlink:href="#aS"/><use transform="matrix(0.04938271604938272,0,0,0.04938271604938272,20.69135802469136,0)" xlink:href="#aU"/><use transform="matrix(0.04938271604938272,0,0,0.04938271604938272,30.567901234567906,0)" xlink:href="#aV"/></g><g id="L"><use transform="matrix(0.04938271604938272,0,0,0.04938271604938272,0,0)" xlink:href="#bB"/><use transform="matrix(0.04938271604938272,0,0,0.04938271604938272,10.814814814814815,0)" xlink:href="#aS"/><use transform="matrix(0.04938271604938272,0,0,0.04938271604938272,20.69135802469136,0)" xlink:href="#aT"/><use transform="matrix(0.04938271604938272,0,0,0.04938271604938272,30.567901234567906,0)" xlink:href="#aU"/><use transform="matrix(0.04938271604938272,0,0,0.04938271604938272,40.44444444444445,0)" xlink:href="#aV"/><use transform="matrix(0.04938271604938272,0,0,0.04938271604938272,50.320987654320994,0)" xlink:href="#aW"/><use transform="matrix(0.04938271604938272,0,0,0.04938271604938272,61.13580246913581,0)" xlink:href="#aX"/></g><g id="M"><use transform="matrix(0.04938271604938272,0,0,0.04938271604938272,0,0)" xlink:href="#aT"/><use transform="matrix(0.04938271604938272,0,0,0.04938271604938272,9.876543209876544,0)" xlink:href="#aY"/><use transform="matrix(0.04938271604938272,0,0,0.04938271604938272,20.69135802469136,0)" xlink:href="#aV"/><use transform="matrix(0.04938271604938272,0,0,0.04938271604938272,30.567901234567906,0)" xlink:href="#aT"/><use transform="matrix(0.04938271604938272,0,0,0.04938271604938272,40.44444444444445,0)" xlink:href="#aU"/></g><g id="N"><use transform="matrix(0.04938271604938272,0,0,0.04938271604938272,0,0)" xlink:href="#aZ"/><use transform="matrix(0.04938271604938272,0,0,0.04938271604938272,6.913580246913581,0)" xlink:href="#aV"/><use transform="matrix(0.04938271604938272,0,0,0.04938271604938272,16.790123456790127,0)" xlink:href="#ba"/><use transform="matrix(0.04938271604938272,0,0,0.04938271604938272,26.666666666666668,0)" xlink:href="#bb"/><use transform="matrix(0.04938271604938272,0,0,0.04938271604938272,37.48148148148149,0)" xlink:href="#bc"/><use transform="matrix(0.04938271604938272,0,0,0.04938271604938272,42.41975308641976,0)" xlink:href="#bd"/><use transform="matrix(0.04938271604938272,0,0,0.04938271604938272,48.296296296296305,0)" xlink:href="#ba"/></g><path fill="#333" d="M212-179c-10-28-35-45-73-45-59 0-87 40-87 99 0 60 29 101 89 101 43 0 62-24 78-52l27 14C228-24 195 4 139 4 59 4 22-46 18-125c-6-104 99-153 187-111 19 9 31 26 39 46" id="bH"/><path fill="#333" d="M100-194c62-1 85 37 85 99 1 63-27 99-86 99S16-35 15-95c0-66 28-99 85-99zM99-20c44 1 53-31 53-75 0-43-8-75-51-75s-53 32-53 75 10 74 51 75" id="bI"/><path fill="#333" d="M177-190C167-65 218 103 67 71c-23-6-38-20-44-43l32-5c15 47 100 32 89-28v-30C133-14 115 1 83 1 29 1 15-40 15-95c0-56 16-97 71-98 29-1 48 16 59 35 1-10 0-23 2-32h30zM94-22c36 0 50-32 50-73 0-42-14-75-50-75-39 0-46 34-46 75s6 73 46 73" id="bJ"/><path fill="#333" d="M117-194c89-4 53 116 60 194h-32v-121c0-31-8-49-39-48C34-167 62-67 57 0H25l-1-190h30c1 10-1 24 2 32 11-22 29-35 61-36" id="bK"/><path fill="#333" d="M24-231v-30h32v30H24zM24 0v-190h32V0H24" id="bL"/><path fill="#333" d="M59-47c-2 24 18 29 38 22v24C64 9 27 4 27-40v-127H5v-23h24l9-43h21v43h35v23H59v120" id="bM"/><g id="O"><use transform="matrix(0.06172839506172839,0,0,0.06172839506172839,0,0)" xlink:href="#bH"/><use transform="matrix(0.06172839506172839,0,0,0.06172839506172839,15.987654320987653,0)" xlink:href="#bI"/><use transform="matrix(0.06172839506172839,0,0,0.06172839506172839,28.333333333333332,0)" xlink:href="#bJ"/><use transform="matrix(0.06172839506172839,0,0,0.06172839506172839,40.67901234567901,0)" xlink:href="#bK"/><use transform="matrix(0.06172839506172839,0,0,0.06172839506172839,53.02469135802469,0)" xlink:href="#bL"/><use transform="matrix(0.06172839506172839,0,0,0.06172839506172839,57.901234567901234,0)" xlink:href="#bM"/><use transform="matrix(0.06172839506172839,0,0,0.06172839506172839,64.07407407407408,0)" xlink:href="#bI"/></g><path fill="#333" d="M85-194c31 0 48 13 60 33l-1-100h32l1 261h-30c-2-10 0-23-3-31C134-8 116 4 85 4 32 4 16-35 15-94c0-66 23-100 70-100zm9 24c-40 0-46 34-46 75 0 40 6 74 45 74 42 0 51-32 51-76 0-42-9-74-50-73" id="bN"/><path fill="#333" d="M100-194c63 0 86 42 84 106H49c0 40 14 67 53 68 26 1 43-12 49-29l28 8c-11 28-37 45-77 45C44 4 14-33 15-96c1-61 26-98 85-98zm52 81c6-60-76-77-97-28-3 7-6 17-6 28h103" id="bO"/><path fill="#333" d="M179-190L93 31C79 59 56 82 12 73V49c39 6 53-20 64-50L1-190h34L92-34l54-156h33" id="bP"/><g id="P"><use transform="matrix(0.06172839506172839,0,0,0.06172839506172839,0,0)" xlink:href="#bL"/><use transform="matrix(0.06172839506172839,0,0,0.06172839506172839,4.876543209876543,0)" xlink:href="#bN"/><use transform="matrix(0.06172839506172839,0,0,0.06172839506172839,17.22222222222222,0)" xlink:href="#bO"/><use transform="matrix(0.06172839506172839,0,0,0.06172839506172839,29.5679012345679,0)" xlink:href="#bK"/><use transform="matrix(0.06172839506172839,0,0,0.06172839506172839,41.913580246913575,0)" xlink:href="#bM"/><use transform="matrix(0.06172839506172839,0,0,0.06172839506172839,48.08641975308642,0)" xlink:href="#bL"/><use transform="matrix(0.06172839506172839,0,0,0.06172839506172839,52.96296296296296,0)" xlink:href="#bM"/><use transform="matrix(0.06172839506172839,0,0,0.06172839506172839,59.135802469135804,0)" xlink:href="#bP"/></g><path fill="#333" d="M115-194c55 1 70 41 70 98S169 2 115 4C84 4 66-9 55-30l1 105H24l-1-265h31l2 30c10-21 28-34 59-34zm-8 174c40 0 45-34 45-75s-6-73-45-74c-42 0-51 32-51 76 0 43 10 73 51 73" id="bQ"/><path fill="#333" d="M24 0v-261h32V0H24" id="bR"/><g id="Q"><use transform="matrix(0.06172839506172839,0,0,0.06172839506172839,0,0)" xlink:href="#bQ"/><use transform="matrix(0.06172839506172839,0,0,0.06172839506172839,12.345679012345679,0)" xlink:href="#bI"/><use transform="matrix(0.06172839506172839,0,0,0.06172839506172839,24.691358024691358,0)" xlink:href="#bI"/><use transform="matrix(0.06172839506172839,0,0,0.06172839506172839,37.03703703703704,0)" xlink:href="#bR"/></g><path fill="#333" d="M195-6C206 82 75 100 31 46c-4-6-6-13-8-21l49-6c3 16 16 24 34 25 40 0 42-37 40-79-11 22-30 35-61 35-53 0-70-43-70-97 0-56 18-96 73-97 30 0 46 14 59 34l2-30h47zm-90-29c32 0 41-27 41-63 0-35-9-62-40-62-32 0-39 29-40 63 0 36 9 62 39 62" id="bS"/><g id="R"><use transform="matrix(0.04938271604938272,0,0,0.04938271604938272,0,0)" xlink:href="#bS"/><use transform="matrix(0.04938271604938272,0,0,0.04938271604938272,10.814814814814815,0)" xlink:href="#aV"/><use transform="matrix(0.04938271604938272,0,0,0.04938271604938272,20.69135802469136,0)" xlink:href="#bd"/></g><g id="S"><use transform="matrix(0.04938271604938272,0,0,0.04938271604938272,0,0)" xlink:href="#bd"/><use transform="matrix(0.04938271604938272,0,0,0.04938271604938272,5.8765432098765435,0)" xlink:href="#by"/><use transform="matrix(0.04938271604938272,0,0,0.04938271604938272,16.691358024691358,0)" xlink:href="#aU"/><use transform="matrix(0.04938271604938272,0,0,0.04938271604938272,26.567901234567902,0)" xlink:href="#aV"/><use transform="matrix(0.04938271604938272,0,0,0.04938271604938272,36.44444444444444,0)" xlink:href="#aW"/></g><path fill="#333" d="M67-125c0 53 21 87 73 88 37 1 54-22 65-47l45 17C233-25 199 4 140 4 58 4 20-42 15-125 8-235 124-281 211-232c18 10 29 29 36 50l-46 12c-8-25-30-41-62-41-52 0-71 34-72 86" id="bT"/><g id="T"><use transform="matrix(0.06172839506172839,0,0,0.06172839506172839,0,0)" xlink:href="#bT"/><use transform="matrix(0.06172839506172839,0,0,0.06172839506172839,15.987654320987653,0)" xlink:href="#by"/><use transform="matrix(0.06172839506172839,0,0,0.06172839506172839,29.50617283950617,0)" xlink:href="#bS"/><use transform="matrix(0.06172839506172839,0,0,0.06172839506172839,43.02469135802469,0)" xlink:href="#aW"/><use transform="matrix(0.06172839506172839,0,0,0.06172839506172839,56.54320987654321,0)" xlink:href="#bE"/><use transform="matrix(0.06172839506172839,0,0,0.06172839506172839,62.71604938271605,0)" xlink:href="#bd"/><use transform="matrix(0.06172839506172839,0,0,0.06172839506172839,70.06172839506173,0)" xlink:href="#by"/></g><path fill="#333" d="M128 0H69L1-190h53L99-40l48-150h52" id="bU"/><g id="U"><use transform="matrix(0.06172839506172839,0,0,0.06172839506172839,0,0)" xlink:href="#ba"/><use transform="matrix(0.06172839506172839,0,0,0.06172839506172839,12.345679012345679,0)" xlink:href="#aV"/><use transform="matrix(0.06172839506172839,0,0,0.06172839506172839,24.691358024691358,0)" xlink:href="#aZ"/><use transform="matrix(0.06172839506172839,0,0,0.06172839506172839,33.33333333333333,0)" xlink:href="#bU"/><use transform="matrix(0.06172839506172839,0,0,0.06172839506172839,45.679012345679006,0)" xlink:href="#bE"/><use transform="matrix(0.06172839506172839,0,0,0.06172839506172839,51.85185185185185,0)" xlink:href="#aT"/><use transform="matrix(0.06172839506172839,0,0,0.06172839506172839,64.19753086419753,0)" xlink:href="#aV"/></g><path fill="#333" d="M199 0l-22-63H83L61 0H9l90-248h61L250 0h-51zm-33-102l-36-108c-10 38-24 72-36 108h72" id="bV"/><path fill="#333" d="M275 0h-61l-44-196L126 0H64L0-248h53L97-49l45-199h58l43 199 44-199h52" id="bW"/><g id="V"><use transform="matrix(0.08024691358024691,0,0,0.08024691358024691,0,0)" xlink:href="#bV"/><use transform="matrix(0.08024691358024691,0,0,0.08024691358024691,19.179012345679013,0)" xlink:href="#bW"/><use transform="matrix(0.08024691358024691,0,0,0.08024691358024691,46.382716049382715,0)" xlink:href="#bz"/></g><g id="W"><use transform="matrix(0.08024691358024691,0,0,0.08024691358024691,0,0)" xlink:href="#aV"/><use transform="matrix(0.08024691358024691,0,0,0.08024691358024691,16.049382716049383,0)" xlink:href="#aW"/><use transform="matrix(0.08024691358024691,0,0,0.08024691358024691,33.623456790123456,0)" xlink:href="#bU"/><use transform="matrix(0.08024691358024691,0,0,0.08024691358024691,49.672839506172835,0)" xlink:href="#bE"/><use transform="matrix(0.08024691358024691,0,0,0.08024691358024691,57.697530864197525,0)" xlink:href="#aZ"/><use transform="matrix(0.08024691358024691,0,0,0.08024691358024691,68.93209876543209,0)" xlink:href="#by"/><use transform="matrix(0.08024691358024691,0,0,0.08024691358024691,86.50617283950616,0)" xlink:href="#aW"/><use transform="matrix(0.08024691358024691,0,0,0.08024691358024691,104.08024691358024,0)" xlink:href="#bC"/><use transform="matrix(0.08024691358024691,0,0,0.08024691358024691,129.75925925925924,0)" xlink:href="#aV"/><use transform="matrix(0.08024691358024691,0,0,0.08024691358024691,145.80864197530863,0)" xlink:href="#aW"/><use transform="matrix(0.08024691358024691,0,0,0.08024691358024691,163.3827160493827,0)" xlink:href="#bd"/><use transform="matrix(0.08024691358024691,0,0,0.08024691358024691,172.9320987654321,0)" xlink:href="#ba"/></g><g id="X"><use transform="matrix(0.08024691358024691,0,0,0.08024691358024691,0,0)" xlink:href="#bx"/><use transform="matrix(0.08024691358024691,0,0,0.08024691358024691,17.574074074074073,0)" xlink:href="#by"/><use transform="matrix(0.08024691358024691,0,0,0.08024691358024691,35.148148148148145,0)" xlink:href="#aT"/><use transform="matrix(0.08024691358024691,0,0,0.08024691358024691,51.197530864197525,0)" xlink:href="#aS"/><use transform="matrix(0.08024691358024691,0,0,0.08024691358024691,67.24691358024691,0)" xlink:href="#bc"/></g><path fill="#333" d="M135-194c53 0 70 44 70 98 0 56-19 98-73 100-31 1-45-17-59-34 3 33 2 69 2 105H25l-1-265h48c2 10 0 23 3 31 11-24 29-35 60-35zM114-30c33 0 39-31 40-66 0-38-9-64-40-64-56 0-55 130 0 130" id="bX"/><g id="Y"><use transform="matrix(0.08024691358024691,0,0,0.08024691358024691,0,0)" xlink:href="#aX"/><use transform="matrix(0.08024691358024691,0,0,0.08024691358024691,17.574074074074073,0)" xlink:href="#aV"/><use transform="matrix(0.08024691358024691,0,0,0.08024691358024691,33.623456790123456,0)" xlink:href="#bU"/><use transform="matrix(0.08024691358024691,0,0,0.08024691358024691,49.672839506172835,0)" xlink:href="#aV"/><use transform="matrix(0.08024691358024691,0,0,0.08024691358024691,65.72222222222221,0)" xlink:href="#bc"/><use transform="matrix(0.08024691358024691,0,0,0.08024691358024691,73.74691358024691,0)" xlink:href="#by"/><use transform="matrix(0.08024691358024691,0,0,0.08024691358024691,91.32098765432099,0)" xlink:href="#bX"/><use transform="matrix(0.08024691358024691,0,0,0.08024691358024691,108.89506172839505,0)" xlink:href="#bC"/><use transform="matrix(0.08024691358024691,0,0,0.08024691358024691,134.57407407407408,0)" xlink:href="#aV"/><use transform="matrix(0.08024691358024691,0,0,0.08024691358024691,150.62345679012347,0)" xlink:href="#aW"/><use transform="matrix(0.08024691358024691,0,0,0.08024691358024691,168.19753086419755,0)" xlink:href="#bd"/></g><g id="Z"><use transform="matrix(0.08024691358024691,0,0,0.08024691358024691,0,0)" xlink:href="#aV"/><use transform="matrix(0.08024691358024691,0,0,0.08024691358024691,16.049382716049383,0)" xlink:href="#aW"/><use transform="matrix(0.08024691358024691,0,0,0.08024691358024691,33.623456790123456,0)" xlink:href="#bU"/><use transform="matrix(0.08024691358024691,0,0,0.08024691358024691,49.672839506172835,0)" xlink:href="#bE"/><use transform="matrix(0.08024691358024691,0,0,0.08024691358024691,57.697530864197525,0)" xlink:href="#aZ"/><use transform="matrix(0.08024691358024691,0,0,0.08024691358024691,68.93209876543209,0)" xlink:href="#by"/><use transform="matrix(0.08024691358024691,0,0,0.08024691358024691,86.50617283950616,0)" xlink:href="#aW"/><use transform="matrix(0.08024691358024691,0,0,0.08024691358024691,104.08024691358024,0)" xlink:href="#bC"/><use transform="matrix(0.08024691358024691,0,0,0.08024691358024691,129.75925925925924,0)" xlink:href="#aV"/><use transform="matrix(0.08024691358024691,0,0,0.08024691358024691,145.80864197530863,0)" xlink:href="#aW"/><use transform="matrix(0.08024691358024691,0,0,0.08024691358024691,163.3827160493827,0)" xlink:href="#bd"/></g><g id="aa"><use transform="matrix(0.049382716049382706,0,0,0.049382716049382706,0,0)" xlink:href="#bT"/><use transform="matrix(0.049382716049382706,0,0,0.049382716049382706,12.790123456790122,0)" xlink:href="#by"/><use transform="matrix(0.049382716049382706,0,0,0.049382716049382706,23.604938271604937,0)" xlink:href="#aW"/><use transform="matrix(0.049382716049382706,0,0,0.049382716049382706,34.419753086419746,0)" xlink:href="#ba"/><use transform="matrix(0.049382716049382706,0,0,0.049382716049382706,44.29629629629629,0)" xlink:href="#bE"/><use transform="matrix(0.049382716049382706,0,0,0.049382716049382706,49.23456790123456,0)" xlink:href="#bS"/><use transform="matrix(0.049382716049382706,0,0,0.049382716049382706,60.04938271604938,0)" xlink:href="#aW"/><use transform="matrix(0.049382716049382706,0,0,0.049382716049382706,70.86419753086419,0)" xlink:href="#bC"/><use transform="matrix(0.049382716049382706,0,0,0.049382716049382706,86.66666666666666,0)" xlink:href="#aV"/><use transform="matrix(0.049382716049382706,0,0,0.049382716049382706,96.5432098765432,0)" xlink:href="#aW"/><use transform="matrix(0.049382716049382706,0,0,0.049382716049382706,107.358024691358,0)" xlink:href="#bd"/></g><path fill="#333" d="M24-248c93 1 206-16 204 79-1 75-69 88-152 82V0H24v-248zm52 121c47 0 100 7 100-41 0-47-54-39-100-39v80" id="bY"/><path fill="#333" d="M24 0v-248h52V0H24" id="bZ"/><g id="ab"><use transform="matrix(0.049382716049382706,0,0,0.049382716049382706,0,0)" xlink:href="#bV"/><use transform="matrix(0.049382716049382706,0,0,0.049382716049382706,12.790123456790122,0)" xlink:href="#bY"/><use transform="matrix(0.049382716049382706,0,0,0.049382716049382706,24.64197530864197,0)" xlink:href="#bZ"/></g><g id="ac"><use transform="matrix(0.049382716049382706,0,0,0.049382716049382706,0,0)" xlink:href="#bY"/><use transform="matrix(0.049382716049382706,0,0,0.049382716049382706,11.85185185185185,0)" xlink:href="#bc"/><use transform="matrix(0.049382716049382706,0,0,0.049382716049382706,16.79012345679012,0)" xlink:href="#aS"/><use transform="matrix(0.049382716049382706,0,0,0.049382716049382706,26.66666666666666,0)" xlink:href="#bF"/></g><path fill="#333" d="M230 0l2-204L168 0h-37L68-204 70 0H24v-248h70l56 185 57-185h69V0h-46" id="ca"/><path fill="#333" d="M147 0H94L2-248h55l64 206c17-72 42-137 63-206h54" id="cb"/><g id="ad"><use transform="matrix(0.049382716049382706,0,0,0.049382716049382706,0,0)" xlink:href="#ca"/><use transform="matrix(0.049382716049382706,0,0,0.049382716049382706,14.765432098765428,0)" xlink:href="#cb"/><use transform="matrix(0.049382716049382706,0,0,0.049382716049382706,26.617283950617278,0)" xlink:href="#bT"/></g></defs></g></svg>